<?xml version="1.0" encoding="utf-8" standalone="no"?>
<!DOCTYPE svg PUBLIC "-//W3C//DTD SVG 1.1//EN"
  "http://www.w3.org/Graphics/SVG/1.1/DTD/svg11.dtd">
<!-- Created with matplotlib (https://matplotlib.org/) -->
<svg height="576pt" version="1.1" viewBox="0 0 1080 576" width="1080pt" xmlns="http://www.w3.org/2000/svg" xmlns:xlink="http://www.w3.org/1999/xlink">
 <defs>
  <style type="text/css">
*{stroke-linecap:butt;stroke-linejoin:round;}
  </style>
 </defs>
 <g id="figure_1">
  <g id="patch_1">
   <path d="M 0 576 
L 1080 576 
L 1080 0 
L 0 0 
z
" style="fill:#ffffff;"/>
  </g>
  <g id="axes_1">
   <g id="patch_2">
    <path d="M 135 504 
L 972 504 
L 972 69.12 
L 135 69.12 
z
" style="fill:#ffffff;"/>
   </g>
   <g id="matplotlib.axis_1">
    <g id="xtick_1">
     <g id="line2d_1">
      <defs>
       <path d="M 0 0 
L 0 3.5 
" id="md38d15fb92" style="stroke:#000000;stroke-width:0.8;"/>
      </defs>
      <g>
       <use style="stroke:#000000;stroke-width:0.8;" x="135" xlink:href="#md38d15fb92" y="504"/>
      </g>
     </g>
     <g id="text_1">
      <!-- 2015 -->
      <defs>
       <path d="M 19.1875 8.296875 
L 53.609375 8.296875 
L 53.609375 0 
L 7.328125 0 
L 7.328125 8.296875 
Q 12.9375 14.109375 22.625 23.890625 
Q 32.328125 33.6875 34.8125 36.53125 
Q 39.546875 41.84375 41.421875 45.53125 
Q 43.3125 49.21875 43.3125 52.78125 
Q 43.3125 58.59375 39.234375 62.25 
Q 35.15625 65.921875 28.609375 65.921875 
Q 23.96875 65.921875 18.8125 64.3125 
Q 13.671875 62.703125 7.8125 59.421875 
L 7.8125 69.390625 
Q 13.765625 71.78125 18.9375 73 
Q 24.125 74.21875 28.421875 74.21875 
Q 39.75 74.21875 46.484375 68.546875 
Q 53.21875 62.890625 53.21875 53.421875 
Q 53.21875 48.921875 51.53125 44.890625 
Q 49.859375 40.875 45.40625 35.40625 
Q 44.1875 33.984375 37.640625 27.21875 
Q 31.109375 20.453125 19.1875 8.296875 
z
" id="DejaVuSans-50"/>
       <path d="M 31.78125 66.40625 
Q 24.171875 66.40625 20.328125 58.90625 
Q 16.5 51.421875 16.5 36.375 
Q 16.5 21.390625 20.328125 13.890625 
Q 24.171875 6.390625 31.78125 6.390625 
Q 39.453125 6.390625 43.28125 13.890625 
Q 47.125 21.390625 47.125 36.375 
Q 47.125 51.421875 43.28125 58.90625 
Q 39.453125 66.40625 31.78125 66.40625 
z
M 31.78125 74.21875 
Q 44.046875 74.21875 50.515625 64.515625 
Q 56.984375 54.828125 56.984375 36.375 
Q 56.984375 17.96875 50.515625 8.265625 
Q 44.046875 -1.421875 31.78125 -1.421875 
Q 19.53125 -1.421875 13.0625 8.265625 
Q 6.59375 17.96875 6.59375 36.375 
Q 6.59375 54.828125 13.0625 64.515625 
Q 19.53125 74.21875 31.78125 74.21875 
z
" id="DejaVuSans-48"/>
       <path d="M 12.40625 8.296875 
L 28.515625 8.296875 
L 28.515625 63.921875 
L 10.984375 60.40625 
L 10.984375 69.390625 
L 28.421875 72.90625 
L 38.28125 72.90625 
L 38.28125 8.296875 
L 54.390625 8.296875 
L 54.390625 0 
L 12.40625 0 
z
" id="DejaVuSans-49"/>
       <path d="M 10.796875 72.90625 
L 49.515625 72.90625 
L 49.515625 64.59375 
L 19.828125 64.59375 
L 19.828125 46.734375 
Q 21.96875 47.46875 24.109375 47.828125 
Q 26.265625 48.1875 28.421875 48.1875 
Q 40.625 48.1875 47.75 41.5 
Q 54.890625 34.8125 54.890625 23.390625 
Q 54.890625 11.625 47.5625 5.09375 
Q 40.234375 -1.421875 26.90625 -1.421875 
Q 22.3125 -1.421875 17.546875 -0.640625 
Q 12.796875 0.140625 7.71875 1.703125 
L 7.71875 11.625 
Q 12.109375 9.234375 16.796875 8.0625 
Q 21.484375 6.890625 26.703125 6.890625 
Q 35.15625 6.890625 40.078125 11.328125 
Q 45.015625 15.765625 45.015625 23.390625 
Q 45.015625 31 40.078125 35.4375 
Q 35.15625 39.890625 26.703125 39.890625 
Q 22.75 39.890625 18.8125 39.015625 
Q 14.890625 38.140625 10.796875 36.28125 
z
" id="DejaVuSans-53"/>
      </defs>
      <g transform="translate(122.275 518.598438)scale(0.1 -0.1)">
       <use xlink:href="#DejaVuSans-50"/>
       <use x="63.623047" xlink:href="#DejaVuSans-48"/>
       <use x="127.246094" xlink:href="#DejaVuSans-49"/>
       <use x="190.869141" xlink:href="#DejaVuSans-53"/>
      </g>
     </g>
    </g>
    <g id="xtick_2">
     <g id="line2d_2">
      <g>
       <use style="stroke:#000000;stroke-width:0.8;" x="291.9375" xlink:href="#md38d15fb92" y="504"/>
      </g>
     </g>
     <g id="text_2">
      <!-- 2016 -->
      <defs>
       <path d="M 33.015625 40.375 
Q 26.375 40.375 22.484375 35.828125 
Q 18.609375 31.296875 18.609375 23.390625 
Q 18.609375 15.53125 22.484375 10.953125 
Q 26.375 6.390625 33.015625 6.390625 
Q 39.65625 6.390625 43.53125 10.953125 
Q 47.40625 15.53125 47.40625 23.390625 
Q 47.40625 31.296875 43.53125 35.828125 
Q 39.65625 40.375 33.015625 40.375 
z
M 52.59375 71.296875 
L 52.59375 62.3125 
Q 48.875 64.0625 45.09375 64.984375 
Q 41.3125 65.921875 37.59375 65.921875 
Q 27.828125 65.921875 22.671875 59.328125 
Q 17.53125 52.734375 16.796875 39.40625 
Q 19.671875 43.65625 24.015625 45.921875 
Q 28.375 48.1875 33.59375 48.1875 
Q 44.578125 48.1875 50.953125 41.515625 
Q 57.328125 34.859375 57.328125 23.390625 
Q 57.328125 12.15625 50.6875 5.359375 
Q 44.046875 -1.421875 33.015625 -1.421875 
Q 20.359375 -1.421875 13.671875 8.265625 
Q 6.984375 17.96875 6.984375 36.375 
Q 6.984375 53.65625 15.1875 63.9375 
Q 23.390625 74.21875 37.203125 74.21875 
Q 40.921875 74.21875 44.703125 73.484375 
Q 48.484375 72.75 52.59375 71.296875 
z
" id="DejaVuSans-54"/>
      </defs>
      <g transform="translate(279.2125 518.598438)scale(0.1 -0.1)">
       <use xlink:href="#DejaVuSans-50"/>
       <use x="63.623047" xlink:href="#DejaVuSans-48"/>
       <use x="127.246094" xlink:href="#DejaVuSans-49"/>
       <use x="190.869141" xlink:href="#DejaVuSans-54"/>
      </g>
     </g>
    </g>
    <g id="xtick_3">
     <g id="line2d_3">
      <g>
       <use style="stroke:#000000;stroke-width:0.8;" x="448.875" xlink:href="#md38d15fb92" y="504"/>
      </g>
     </g>
     <g id="text_3">
      <!-- 2017 -->
      <defs>
       <path d="M 8.203125 72.90625 
L 55.078125 72.90625 
L 55.078125 68.703125 
L 28.609375 0 
L 18.3125 0 
L 43.21875 64.59375 
L 8.203125 64.59375 
z
" id="DejaVuSans-55"/>
      </defs>
      <g transform="translate(436.15 518.598438)scale(0.1 -0.1)">
       <use xlink:href="#DejaVuSans-50"/>
       <use x="63.623047" xlink:href="#DejaVuSans-48"/>
       <use x="127.246094" xlink:href="#DejaVuSans-49"/>
       <use x="190.869141" xlink:href="#DejaVuSans-55"/>
      </g>
     </g>
    </g>
    <g id="xtick_4">
     <g id="line2d_4">
      <g>
       <use style="stroke:#000000;stroke-width:0.8;" x="605.8125" xlink:href="#md38d15fb92" y="504"/>
      </g>
     </g>
     <g id="text_4">
      <!-- 2018 -->
      <defs>
       <path d="M 31.78125 34.625 
Q 24.75 34.625 20.71875 30.859375 
Q 16.703125 27.09375 16.703125 20.515625 
Q 16.703125 13.921875 20.71875 10.15625 
Q 24.75 6.390625 31.78125 6.390625 
Q 38.8125 6.390625 42.859375 10.171875 
Q 46.921875 13.96875 46.921875 20.515625 
Q 46.921875 27.09375 42.890625 30.859375 
Q 38.875 34.625 31.78125 34.625 
z
M 21.921875 38.8125 
Q 15.578125 40.375 12.03125 44.71875 
Q 8.5 49.078125 8.5 55.328125 
Q 8.5 64.0625 14.71875 69.140625 
Q 20.953125 74.21875 31.78125 74.21875 
Q 42.671875 74.21875 48.875 69.140625 
Q 55.078125 64.0625 55.078125 55.328125 
Q 55.078125 49.078125 51.53125 44.71875 
Q 48 40.375 41.703125 38.8125 
Q 48.828125 37.15625 52.796875 32.3125 
Q 56.78125 27.484375 56.78125 20.515625 
Q 56.78125 9.90625 50.3125 4.234375 
Q 43.84375 -1.421875 31.78125 -1.421875 
Q 19.734375 -1.421875 13.25 4.234375 
Q 6.78125 9.90625 6.78125 20.515625 
Q 6.78125 27.484375 10.78125 32.3125 
Q 14.796875 37.15625 21.921875 38.8125 
z
M 18.3125 54.390625 
Q 18.3125 48.734375 21.84375 45.5625 
Q 25.390625 42.390625 31.78125 42.390625 
Q 38.140625 42.390625 41.71875 45.5625 
Q 45.3125 48.734375 45.3125 54.390625 
Q 45.3125 60.0625 41.71875 63.234375 
Q 38.140625 66.40625 31.78125 66.40625 
Q 25.390625 66.40625 21.84375 63.234375 
Q 18.3125 60.0625 18.3125 54.390625 
z
" id="DejaVuSans-56"/>
      </defs>
      <g transform="translate(593.0875 518.598438)scale(0.1 -0.1)">
       <use xlink:href="#DejaVuSans-50"/>
       <use x="63.623047" xlink:href="#DejaVuSans-48"/>
       <use x="127.246094" xlink:href="#DejaVuSans-49"/>
       <use x="190.869141" xlink:href="#DejaVuSans-56"/>
      </g>
     </g>
    </g>
    <g id="xtick_5">
     <g id="line2d_5">
      <g>
       <use style="stroke:#000000;stroke-width:0.8;" x="762.75" xlink:href="#md38d15fb92" y="504"/>
      </g>
     </g>
     <g id="text_5">
      <!-- 2019 -->
      <defs>
       <path d="M 10.984375 1.515625 
L 10.984375 10.5 
Q 14.703125 8.734375 18.5 7.8125 
Q 22.3125 6.890625 25.984375 6.890625 
Q 35.75 6.890625 40.890625 13.453125 
Q 46.046875 20.015625 46.78125 33.40625 
Q 43.953125 29.203125 39.59375 26.953125 
Q 35.25 24.703125 29.984375 24.703125 
Q 19.046875 24.703125 12.671875 31.3125 
Q 6.296875 37.9375 6.296875 49.421875 
Q 6.296875 60.640625 12.9375 67.421875 
Q 19.578125 74.21875 30.609375 74.21875 
Q 43.265625 74.21875 49.921875 64.515625 
Q 56.59375 54.828125 56.59375 36.375 
Q 56.59375 19.140625 48.40625 8.859375 
Q 40.234375 -1.421875 26.421875 -1.421875 
Q 22.703125 -1.421875 18.890625 -0.6875 
Q 15.09375 0.046875 10.984375 1.515625 
z
M 30.609375 32.421875 
Q 37.25 32.421875 41.125 36.953125 
Q 45.015625 41.5 45.015625 49.421875 
Q 45.015625 57.28125 41.125 61.84375 
Q 37.25 66.40625 30.609375 66.40625 
Q 23.96875 66.40625 20.09375 61.84375 
Q 16.21875 57.28125 16.21875 49.421875 
Q 16.21875 41.5 20.09375 36.953125 
Q 23.96875 32.421875 30.609375 32.421875 
z
" id="DejaVuSans-57"/>
      </defs>
      <g transform="translate(750.025 518.598438)scale(0.1 -0.1)">
       <use xlink:href="#DejaVuSans-50"/>
       <use x="63.623047" xlink:href="#DejaVuSans-48"/>
       <use x="127.246094" xlink:href="#DejaVuSans-49"/>
       <use x="190.869141" xlink:href="#DejaVuSans-57"/>
      </g>
     </g>
    </g>
    <g id="xtick_6">
     <g id="line2d_6">
      <g>
       <use style="stroke:#000000;stroke-width:0.8;" x="919.6875" xlink:href="#md38d15fb92" y="504"/>
      </g>
     </g>
     <g id="text_6">
      <!-- 2020 -->
      <g transform="translate(906.9625 518.598438)scale(0.1 -0.1)">
       <use xlink:href="#DejaVuSans-50"/>
       <use x="63.623047" xlink:href="#DejaVuSans-48"/>
       <use x="127.246094" xlink:href="#DejaVuSans-50"/>
       <use x="190.869141" xlink:href="#DejaVuSans-48"/>
      </g>
     </g>
    </g>
    <g id="xtick_7">
     <g id="line2d_7">
      <defs>
       <path d="M 0 0 
L 0 2 
" id="mf8d0432d40" style="stroke:#000000;stroke-width:0.6;"/>
      </defs>
      <g>
       <use style="stroke:#000000;stroke-width:0.6;" x="174.234375" xlink:href="#mf8d0432d40" y="504"/>
      </g>
     </g>
    </g>
    <g id="xtick_8">
     <g id="line2d_8">
      <g>
       <use style="stroke:#000000;stroke-width:0.6;" x="213.46875" xlink:href="#mf8d0432d40" y="504"/>
      </g>
     </g>
    </g>
    <g id="xtick_9">
     <g id="line2d_9">
      <g>
       <use style="stroke:#000000;stroke-width:0.6;" x="252.703125" xlink:href="#mf8d0432d40" y="504"/>
      </g>
     </g>
    </g>
    <g id="xtick_10">
     <g id="line2d_10">
      <g>
       <use style="stroke:#000000;stroke-width:0.6;" x="331.171875" xlink:href="#mf8d0432d40" y="504"/>
      </g>
     </g>
    </g>
    <g id="xtick_11">
     <g id="line2d_11">
      <g>
       <use style="stroke:#000000;stroke-width:0.6;" x="370.40625" xlink:href="#mf8d0432d40" y="504"/>
      </g>
     </g>
    </g>
    <g id="xtick_12">
     <g id="line2d_12">
      <g>
       <use style="stroke:#000000;stroke-width:0.6;" x="409.640625" xlink:href="#mf8d0432d40" y="504"/>
      </g>
     </g>
    </g>
    <g id="xtick_13">
     <g id="line2d_13">
      <g>
       <use style="stroke:#000000;stroke-width:0.6;" x="488.109375" xlink:href="#mf8d0432d40" y="504"/>
      </g>
     </g>
    </g>
    <g id="xtick_14">
     <g id="line2d_14">
      <g>
       <use style="stroke:#000000;stroke-width:0.6;" x="527.34375" xlink:href="#mf8d0432d40" y="504"/>
      </g>
     </g>
    </g>
    <g id="xtick_15">
     <g id="line2d_15">
      <g>
       <use style="stroke:#000000;stroke-width:0.6;" x="566.578125" xlink:href="#mf8d0432d40" y="504"/>
      </g>
     </g>
    </g>
    <g id="xtick_16">
     <g id="line2d_16">
      <g>
       <use style="stroke:#000000;stroke-width:0.6;" x="645.046875" xlink:href="#mf8d0432d40" y="504"/>
      </g>
     </g>
    </g>
    <g id="xtick_17">
     <g id="line2d_17">
      <g>
       <use style="stroke:#000000;stroke-width:0.6;" x="684.28125" xlink:href="#mf8d0432d40" y="504"/>
      </g>
     </g>
    </g>
    <g id="xtick_18">
     <g id="line2d_18">
      <g>
       <use style="stroke:#000000;stroke-width:0.6;" x="723.515625" xlink:href="#mf8d0432d40" y="504"/>
      </g>
     </g>
    </g>
    <g id="xtick_19">
     <g id="line2d_19">
      <g>
       <use style="stroke:#000000;stroke-width:0.6;" x="801.984375" xlink:href="#mf8d0432d40" y="504"/>
      </g>
     </g>
    </g>
    <g id="xtick_20">
     <g id="line2d_20">
      <g>
       <use style="stroke:#000000;stroke-width:0.6;" x="841.21875" xlink:href="#mf8d0432d40" y="504"/>
      </g>
     </g>
    </g>
    <g id="xtick_21">
     <g id="line2d_21">
      <g>
       <use style="stroke:#000000;stroke-width:0.6;" x="880.453125" xlink:href="#mf8d0432d40" y="504"/>
      </g>
     </g>
    </g>
    <g id="xtick_22">
     <g id="line2d_22">
      <g>
       <use style="stroke:#000000;stroke-width:0.6;" x="958.921875" xlink:href="#mf8d0432d40" y="504"/>
      </g>
     </g>
    </g>
    <g id="text_7">
     <!-- Date -->
     <defs>
      <path d="M 19.671875 64.796875 
L 19.671875 8.109375 
L 31.59375 8.109375 
Q 46.6875 8.109375 53.6875 14.9375 
Q 60.6875 21.78125 60.6875 36.53125 
Q 60.6875 51.171875 53.6875 57.984375 
Q 46.6875 64.796875 31.59375 64.796875 
z
M 9.8125 72.90625 
L 30.078125 72.90625 
Q 51.265625 72.90625 61.171875 64.09375 
Q 71.09375 55.28125 71.09375 36.53125 
Q 71.09375 17.671875 61.125 8.828125 
Q 51.171875 0 30.078125 0 
L 9.8125 0 
z
" id="DejaVuSans-68"/>
      <path d="M 34.28125 27.484375 
Q 23.390625 27.484375 19.1875 25 
Q 14.984375 22.515625 14.984375 16.5 
Q 14.984375 11.71875 18.140625 8.90625 
Q 21.296875 6.109375 26.703125 6.109375 
Q 34.1875 6.109375 38.703125 11.40625 
Q 43.21875 16.703125 43.21875 25.484375 
L 43.21875 27.484375 
z
M 52.203125 31.203125 
L 52.203125 0 
L 43.21875 0 
L 43.21875 8.296875 
Q 40.140625 3.328125 35.546875 0.953125 
Q 30.953125 -1.421875 24.3125 -1.421875 
Q 15.921875 -1.421875 10.953125 3.296875 
Q 6 8.015625 6 15.921875 
Q 6 25.140625 12.171875 29.828125 
Q 18.359375 34.515625 30.609375 34.515625 
L 43.21875 34.515625 
L 43.21875 35.40625 
Q 43.21875 41.609375 39.140625 45 
Q 35.0625 48.390625 27.6875 48.390625 
Q 23 48.390625 18.546875 47.265625 
Q 14.109375 46.140625 10.015625 43.890625 
L 10.015625 52.203125 
Q 14.9375 54.109375 19.578125 55.046875 
Q 24.21875 56 28.609375 56 
Q 40.484375 56 46.34375 49.84375 
Q 52.203125 43.703125 52.203125 31.203125 
z
" id="DejaVuSans-97"/>
      <path d="M 18.3125 70.21875 
L 18.3125 54.6875 
L 36.8125 54.6875 
L 36.8125 47.703125 
L 18.3125 47.703125 
L 18.3125 18.015625 
Q 18.3125 11.328125 20.140625 9.421875 
Q 21.96875 7.515625 27.59375 7.515625 
L 36.8125 7.515625 
L 36.8125 0 
L 27.59375 0 
Q 17.1875 0 13.234375 3.875 
Q 9.28125 7.765625 9.28125 18.015625 
L 9.28125 47.703125 
L 2.6875 47.703125 
L 2.6875 54.6875 
L 9.28125 54.6875 
L 9.28125 70.21875 
z
" id="DejaVuSans-116"/>
      <path d="M 56.203125 29.59375 
L 56.203125 25.203125 
L 14.890625 25.203125 
Q 15.484375 15.921875 20.484375 11.0625 
Q 25.484375 6.203125 34.421875 6.203125 
Q 39.59375 6.203125 44.453125 7.46875 
Q 49.3125 8.734375 54.109375 11.28125 
L 54.109375 2.78125 
Q 49.265625 0.734375 44.1875 -0.34375 
Q 39.109375 -1.421875 33.890625 -1.421875 
Q 20.796875 -1.421875 13.15625 6.1875 
Q 5.515625 13.8125 5.515625 26.8125 
Q 5.515625 40.234375 12.765625 48.109375 
Q 20.015625 56 32.328125 56 
Q 43.359375 56 49.78125 48.890625 
Q 56.203125 41.796875 56.203125 29.59375 
z
M 47.21875 32.234375 
Q 47.125 39.59375 43.09375 43.984375 
Q 39.0625 48.390625 32.421875 48.390625 
Q 24.90625 48.390625 20.390625 44.140625 
Q 15.875 39.890625 15.1875 32.171875 
z
" id="DejaVuSans-101"/>
     </defs>
     <g transform="translate(541.549219 532.276562)scale(0.1 -0.1)">
      <use xlink:href="#DejaVuSans-68"/>
      <use x="77.001953" xlink:href="#DejaVuSans-97"/>
      <use x="138.28125" xlink:href="#DejaVuSans-116"/>
      <use x="177.490234" xlink:href="#DejaVuSans-101"/>
     </g>
    </g>
   </g>
   <g id="matplotlib.axis_2">
    <g id="ytick_1">
     <g id="line2d_23">
      <defs>
       <path d="M 0 0 
L -3.5 0 
" id="maede5e8fe3" style="stroke:#000000;stroke-width:0.8;"/>
      </defs>
      <g>
       <use style="stroke:#000000;stroke-width:0.8;" x="135" xlink:href="#maede5e8fe3" y="484.232727"/>
      </g>
     </g>
     <g id="text_8">
      <!-- 10 -->
      <g transform="translate(115.275 488.031946)scale(0.1 -0.1)">
       <use xlink:href="#DejaVuSans-49"/>
       <use x="63.623047" xlink:href="#DejaVuSans-48"/>
      </g>
     </g>
    </g>
    <g id="ytick_2">
     <g id="line2d_24">
      <g>
       <use style="stroke:#000000;stroke-width:0.8;" x="135" xlink:href="#maede5e8fe3" y="401.869091"/>
      </g>
     </g>
     <g id="text_9">
      <!-- 15 -->
      <g transform="translate(115.275 405.66831)scale(0.1 -0.1)">
       <use xlink:href="#DejaVuSans-49"/>
       <use x="63.623047" xlink:href="#DejaVuSans-53"/>
      </g>
     </g>
    </g>
    <g id="ytick_3">
     <g id="line2d_25">
      <g>
       <use style="stroke:#000000;stroke-width:0.8;" x="135" xlink:href="#maede5e8fe3" y="319.505455"/>
      </g>
     </g>
     <g id="text_10">
      <!-- 20 -->
      <g transform="translate(115.275 323.304673)scale(0.1 -0.1)">
       <use xlink:href="#DejaVuSans-50"/>
       <use x="63.623047" xlink:href="#DejaVuSans-48"/>
      </g>
     </g>
    </g>
    <g id="ytick_4">
     <g id="line2d_26">
      <g>
       <use style="stroke:#000000;stroke-width:0.8;" x="135" xlink:href="#maede5e8fe3" y="237.141818"/>
      </g>
     </g>
     <g id="text_11">
      <!-- 25 -->
      <g transform="translate(115.275 240.941037)scale(0.1 -0.1)">
       <use xlink:href="#DejaVuSans-50"/>
       <use x="63.623047" xlink:href="#DejaVuSans-53"/>
      </g>
     </g>
    </g>
    <g id="ytick_5">
     <g id="line2d_27">
      <g>
       <use style="stroke:#000000;stroke-width:0.8;" x="135" xlink:href="#maede5e8fe3" y="154.778182"/>
      </g>
     </g>
     <g id="text_12">
      <!-- 30 -->
      <defs>
       <path d="M 40.578125 39.3125 
Q 47.65625 37.796875 51.625 33 
Q 55.609375 28.21875 55.609375 21.1875 
Q 55.609375 10.40625 48.1875 4.484375 
Q 40.765625 -1.421875 27.09375 -1.421875 
Q 22.515625 -1.421875 17.65625 -0.515625 
Q 12.796875 0.390625 7.625 2.203125 
L 7.625 11.71875 
Q 11.71875 9.328125 16.59375 8.109375 
Q 21.484375 6.890625 26.8125 6.890625 
Q 36.078125 6.890625 40.9375 10.546875 
Q 45.796875 14.203125 45.796875 21.1875 
Q 45.796875 27.640625 41.28125 31.265625 
Q 36.765625 34.90625 28.71875 34.90625 
L 20.21875 34.90625 
L 20.21875 43.015625 
L 29.109375 43.015625 
Q 36.375 43.015625 40.234375 45.921875 
Q 44.09375 48.828125 44.09375 54.296875 
Q 44.09375 59.90625 40.109375 62.90625 
Q 36.140625 65.921875 28.71875 65.921875 
Q 24.65625 65.921875 20.015625 65.03125 
Q 15.375 64.15625 9.8125 62.3125 
L 9.8125 71.09375 
Q 15.4375 72.65625 20.34375 73.4375 
Q 25.25 74.21875 29.59375 74.21875 
Q 40.828125 74.21875 47.359375 69.109375 
Q 53.90625 64.015625 53.90625 55.328125 
Q 53.90625 49.265625 50.4375 45.09375 
Q 46.96875 40.921875 40.578125 39.3125 
z
" id="DejaVuSans-51"/>
      </defs>
      <g transform="translate(115.275 158.577401)scale(0.1 -0.1)">
       <use xlink:href="#DejaVuSans-51"/>
       <use x="63.623047" xlink:href="#DejaVuSans-48"/>
      </g>
     </g>
    </g>
    <g id="ytick_6">
     <g id="line2d_28">
      <g>
       <use style="stroke:#000000;stroke-width:0.8;" x="135" xlink:href="#maede5e8fe3" y="72.414545"/>
      </g>
     </g>
     <g id="text_13">
      <!-- 35 -->
      <g transform="translate(115.275 76.213764)scale(0.1 -0.1)">
       <use xlink:href="#DejaVuSans-51"/>
       <use x="63.623047" xlink:href="#DejaVuSans-53"/>
      </g>
     </g>
    </g>
    <g id="text_14">
     <!-- Number of Deaths -->
     <defs>
      <path d="M 9.8125 72.90625 
L 23.09375 72.90625 
L 55.421875 11.921875 
L 55.421875 72.90625 
L 64.984375 72.90625 
L 64.984375 0 
L 51.703125 0 
L 19.390625 60.984375 
L 19.390625 0 
L 9.8125 0 
z
" id="DejaVuSans-78"/>
      <path d="M 8.5 21.578125 
L 8.5 54.6875 
L 17.484375 54.6875 
L 17.484375 21.921875 
Q 17.484375 14.15625 20.5 10.265625 
Q 23.53125 6.390625 29.59375 6.390625 
Q 36.859375 6.390625 41.078125 11.03125 
Q 45.3125 15.671875 45.3125 23.6875 
L 45.3125 54.6875 
L 54.296875 54.6875 
L 54.296875 0 
L 45.3125 0 
L 45.3125 8.40625 
Q 42.046875 3.421875 37.71875 1 
Q 33.40625 -1.421875 27.6875 -1.421875 
Q 18.265625 -1.421875 13.375 4.4375 
Q 8.5 10.296875 8.5 21.578125 
z
M 31.109375 56 
z
" id="DejaVuSans-117"/>
      <path d="M 52 44.1875 
Q 55.375 50.25 60.0625 53.125 
Q 64.75 56 71.09375 56 
Q 79.640625 56 84.28125 50.015625 
Q 88.921875 44.046875 88.921875 33.015625 
L 88.921875 0 
L 79.890625 0 
L 79.890625 32.71875 
Q 79.890625 40.578125 77.09375 44.375 
Q 74.3125 48.1875 68.609375 48.1875 
Q 61.625 48.1875 57.5625 43.546875 
Q 53.515625 38.921875 53.515625 30.90625 
L 53.515625 0 
L 44.484375 0 
L 44.484375 32.71875 
Q 44.484375 40.625 41.703125 44.40625 
Q 38.921875 48.1875 33.109375 48.1875 
Q 26.21875 48.1875 22.15625 43.53125 
Q 18.109375 38.875 18.109375 30.90625 
L 18.109375 0 
L 9.078125 0 
L 9.078125 54.6875 
L 18.109375 54.6875 
L 18.109375 46.1875 
Q 21.1875 51.21875 25.484375 53.609375 
Q 29.78125 56 35.6875 56 
Q 41.65625 56 45.828125 52.96875 
Q 50 49.953125 52 44.1875 
z
" id="DejaVuSans-109"/>
      <path d="M 48.6875 27.296875 
Q 48.6875 37.203125 44.609375 42.84375 
Q 40.53125 48.484375 33.40625 48.484375 
Q 26.265625 48.484375 22.1875 42.84375 
Q 18.109375 37.203125 18.109375 27.296875 
Q 18.109375 17.390625 22.1875 11.75 
Q 26.265625 6.109375 33.40625 6.109375 
Q 40.53125 6.109375 44.609375 11.75 
Q 48.6875 17.390625 48.6875 27.296875 
z
M 18.109375 46.390625 
Q 20.953125 51.265625 25.265625 53.625 
Q 29.59375 56 35.59375 56 
Q 45.5625 56 51.78125 48.09375 
Q 58.015625 40.1875 58.015625 27.296875 
Q 58.015625 14.40625 51.78125 6.484375 
Q 45.5625 -1.421875 35.59375 -1.421875 
Q 29.59375 -1.421875 25.265625 0.953125 
Q 20.953125 3.328125 18.109375 8.203125 
L 18.109375 0 
L 9.078125 0 
L 9.078125 75.984375 
L 18.109375 75.984375 
z
" id="DejaVuSans-98"/>
      <path d="M 41.109375 46.296875 
Q 39.59375 47.171875 37.8125 47.578125 
Q 36.03125 48 33.890625 48 
Q 26.265625 48 22.1875 43.046875 
Q 18.109375 38.09375 18.109375 28.8125 
L 18.109375 0 
L 9.078125 0 
L 9.078125 54.6875 
L 18.109375 54.6875 
L 18.109375 46.1875 
Q 20.953125 51.171875 25.484375 53.578125 
Q 30.03125 56 36.53125 56 
Q 37.453125 56 38.578125 55.875 
Q 39.703125 55.765625 41.0625 55.515625 
z
" id="DejaVuSans-114"/>
      <path id="DejaVuSans-32"/>
      <path d="M 30.609375 48.390625 
Q 23.390625 48.390625 19.1875 42.75 
Q 14.984375 37.109375 14.984375 27.296875 
Q 14.984375 17.484375 19.15625 11.84375 
Q 23.34375 6.203125 30.609375 6.203125 
Q 37.796875 6.203125 41.984375 11.859375 
Q 46.1875 17.53125 46.1875 27.296875 
Q 46.1875 37.015625 41.984375 42.703125 
Q 37.796875 48.390625 30.609375 48.390625 
z
M 30.609375 56 
Q 42.328125 56 49.015625 48.375 
Q 55.71875 40.765625 55.71875 27.296875 
Q 55.71875 13.875 49.015625 6.21875 
Q 42.328125 -1.421875 30.609375 -1.421875 
Q 18.84375 -1.421875 12.171875 6.21875 
Q 5.515625 13.875 5.515625 27.296875 
Q 5.515625 40.765625 12.171875 48.375 
Q 18.84375 56 30.609375 56 
z
" id="DejaVuSans-111"/>
      <path d="M 37.109375 75.984375 
L 37.109375 68.5 
L 28.515625 68.5 
Q 23.6875 68.5 21.796875 66.546875 
Q 19.921875 64.59375 19.921875 59.515625 
L 19.921875 54.6875 
L 34.71875 54.6875 
L 34.71875 47.703125 
L 19.921875 47.703125 
L 19.921875 0 
L 10.890625 0 
L 10.890625 47.703125 
L 2.296875 47.703125 
L 2.296875 54.6875 
L 10.890625 54.6875 
L 10.890625 58.5 
Q 10.890625 67.625 15.140625 71.796875 
Q 19.390625 75.984375 28.609375 75.984375 
z
" id="DejaVuSans-102"/>
      <path d="M 54.890625 33.015625 
L 54.890625 0 
L 45.90625 0 
L 45.90625 32.71875 
Q 45.90625 40.484375 42.875 44.328125 
Q 39.84375 48.1875 33.796875 48.1875 
Q 26.515625 48.1875 22.3125 43.546875 
Q 18.109375 38.921875 18.109375 30.90625 
L 18.109375 0 
L 9.078125 0 
L 9.078125 75.984375 
L 18.109375 75.984375 
L 18.109375 46.1875 
Q 21.34375 51.125 25.703125 53.5625 
Q 30.078125 56 35.796875 56 
Q 45.21875 56 50.046875 50.171875 
Q 54.890625 44.34375 54.890625 33.015625 
z
" id="DejaVuSans-104"/>
      <path d="M 44.28125 53.078125 
L 44.28125 44.578125 
Q 40.484375 46.53125 36.375 47.5 
Q 32.28125 48.484375 27.875 48.484375 
Q 21.1875 48.484375 17.84375 46.4375 
Q 14.5 44.390625 14.5 40.28125 
Q 14.5 37.15625 16.890625 35.375 
Q 19.28125 33.59375 26.515625 31.984375 
L 29.59375 31.296875 
Q 39.15625 29.25 43.1875 25.515625 
Q 47.21875 21.78125 47.21875 15.09375 
Q 47.21875 7.46875 41.1875 3.015625 
Q 35.15625 -1.421875 24.609375 -1.421875 
Q 20.21875 -1.421875 15.453125 -0.5625 
Q 10.6875 0.296875 5.421875 2 
L 5.421875 11.28125 
Q 10.40625 8.6875 15.234375 7.390625 
Q 20.0625 6.109375 24.8125 6.109375 
Q 31.15625 6.109375 34.5625 8.28125 
Q 37.984375 10.453125 37.984375 14.40625 
Q 37.984375 18.0625 35.515625 20.015625 
Q 33.0625 21.96875 24.703125 23.78125 
L 21.578125 24.515625 
Q 13.234375 26.265625 9.515625 29.90625 
Q 5.8125 33.546875 5.8125 39.890625 
Q 5.8125 47.609375 11.28125 51.796875 
Q 16.75 56 26.8125 56 
Q 31.78125 56 36.171875 55.265625 
Q 40.578125 54.546875 44.28125 53.078125 
z
" id="DejaVuSans-115"/>
     </defs>
     <g transform="translate(109.195312 332.367813)rotate(-90)scale(0.1 -0.1)">
      <use xlink:href="#DejaVuSans-78"/>
      <use x="74.804688" xlink:href="#DejaVuSans-117"/>
      <use x="138.183594" xlink:href="#DejaVuSans-109"/>
      <use x="235.595703" xlink:href="#DejaVuSans-98"/>
      <use x="299.072266" xlink:href="#DejaVuSans-101"/>
      <use x="360.595703" xlink:href="#DejaVuSans-114"/>
      <use x="401.708984" xlink:href="#DejaVuSans-32"/>
      <use x="433.496094" xlink:href="#DejaVuSans-111"/>
      <use x="494.677734" xlink:href="#DejaVuSans-102"/>
      <use x="529.882812" xlink:href="#DejaVuSans-32"/>
      <use x="561.669922" xlink:href="#DejaVuSans-68"/>
      <use x="638.671875" xlink:href="#DejaVuSans-101"/>
      <use x="700.195312" xlink:href="#DejaVuSans-97"/>
      <use x="761.474609" xlink:href="#DejaVuSans-116"/>
      <use x="800.683594" xlink:href="#DejaVuSans-104"/>
      <use x="864.0625" xlink:href="#DejaVuSans-115"/>
     </g>
    </g>
   </g>
   <g id="line2d_29">
    <path clip-path="url(#pbd799a0c6e)" d="M 135 368.923636 
L 148.078125 319.505455 
L 161.15625 204.196364 
L 174.234375 237.141818 
L 187.3125 319.505455 
L 200.390625 434.814545 
L 213.46875 237.141818 
L 226.546875 204.196364 
L 239.625 352.450909 
L 252.703125 220.669091 
L 265.78125 335.978182 
L 278.859375 303.032727 
L 291.9375 385.396364 
L 305.015625 253.614545 
L 318.09375 319.505455 
L 331.171875 303.032727 
L 344.25 303.032727 
L 357.328125 220.669091 
L 370.40625 270.087273 
L 383.484375 418.341818 
L 396.5625 319.505455 
L 409.640625 385.396364 
L 422.71875 335.978182 
L 435.796875 418.341818 
L 448.875 303.032727 
L 461.953125 138.305455 
L 475.03125 368.923636 
L 488.109375 319.505455 
L 501.1875 385.396364 
L 514.265625 368.923636 
L 527.34375 319.505455 
L 540.421875 270.087273 
L 553.5 451.287273 
L 566.578125 352.450909 
L 579.65625 335.978182 
L 592.734375 484.232727 
L 605.8125 253.614545 
L 618.890625 237.141818 
L 631.96875 352.450909 
L 645.046875 220.669091 
L 658.125 484.232727 
L 671.203125 319.505455 
L 684.28125 434.814545 
L 697.359375 303.032727 
L 710.4375 401.869091 
L 723.515625 319.505455 
L 736.59375 352.450909 
L 749.671875 335.978182 
L 762.75 270.087273 
L 775.828125 303.032727 
L 788.90625 303.032727 
L 801.984375 418.341818 
L 815.0625 385.396364 
L 828.140625 220.669091 
L 841.21875 335.978182 
L 854.296875 303.032727 
L 867.375 352.450909 
L 880.453125 303.032727 
L 893.53125 385.396364 
L 906.609375 88.887273 
L 919.6875 204.196364 
L 932.765625 434.814545 
L 945.84375 418.341818 
L 958.921875 401.869091 
L 972 204.196364 
" style="fill:none;stroke:#008000;stroke-linecap:square;stroke-width:1.5;"/>
   </g>
   <g id="patch_3">
    <path d="M 135 504 
L 135 69.12 
" style="fill:none;stroke:#000000;stroke-linecap:square;stroke-linejoin:miter;stroke-width:0.8;"/>
   </g>
   <g id="patch_4">
    <path d="M 972 504 
L 972 69.12 
" style="fill:none;stroke:#000000;stroke-linecap:square;stroke-linejoin:miter;stroke-width:0.8;"/>
   </g>
   <g id="patch_5">
    <path d="M 135 504 
L 972 504 
" style="fill:none;stroke:#000000;stroke-linecap:square;stroke-linejoin:miter;stroke-width:0.8;"/>
   </g>
   <g id="patch_6">
    <path d="M 135 69.12 
L 972 69.12 
" style="fill:none;stroke:#000000;stroke-linecap:square;stroke-linejoin:miter;stroke-width:0.8;"/>
   </g>
   <g id="text_15">
    <!-- News Articles in Relation to Deaths from Police Shootings -->
    <defs>
     <path d="M 4.203125 54.6875 
L 13.1875 54.6875 
L 24.421875 12.015625 
L 35.59375 54.6875 
L 46.1875 54.6875 
L 57.421875 12.015625 
L 68.609375 54.6875 
L 77.59375 54.6875 
L 63.28125 0 
L 52.6875 0 
L 40.921875 44.828125 
L 29.109375 0 
L 18.5 0 
z
" id="DejaVuSans-119"/>
     <path d="M 34.1875 63.1875 
L 20.796875 26.90625 
L 47.609375 26.90625 
z
M 28.609375 72.90625 
L 39.796875 72.90625 
L 67.578125 0 
L 57.328125 0 
L 50.6875 18.703125 
L 17.828125 18.703125 
L 11.1875 0 
L 0.78125 0 
z
" id="DejaVuSans-65"/>
     <path d="M 9.421875 54.6875 
L 18.40625 54.6875 
L 18.40625 0 
L 9.421875 0 
z
M 9.421875 75.984375 
L 18.40625 75.984375 
L 18.40625 64.59375 
L 9.421875 64.59375 
z
" id="DejaVuSans-105"/>
     <path d="M 48.78125 52.59375 
L 48.78125 44.1875 
Q 44.96875 46.296875 41.140625 47.34375 
Q 37.3125 48.390625 33.40625 48.390625 
Q 24.65625 48.390625 19.8125 42.84375 
Q 14.984375 37.3125 14.984375 27.296875 
Q 14.984375 17.28125 19.8125 11.734375 
Q 24.65625 6.203125 33.40625 6.203125 
Q 37.3125 6.203125 41.140625 7.25 
Q 44.96875 8.296875 48.78125 10.40625 
L 48.78125 2.09375 
Q 45.015625 0.34375 40.984375 -0.53125 
Q 36.96875 -1.421875 32.421875 -1.421875 
Q 20.0625 -1.421875 12.78125 6.34375 
Q 5.515625 14.109375 5.515625 27.296875 
Q 5.515625 40.671875 12.859375 48.328125 
Q 20.21875 56 33.015625 56 
Q 37.15625 56 41.109375 55.140625 
Q 45.0625 54.296875 48.78125 52.59375 
z
" id="DejaVuSans-99"/>
     <path d="M 9.421875 75.984375 
L 18.40625 75.984375 
L 18.40625 0 
L 9.421875 0 
z
" id="DejaVuSans-108"/>
     <path d="M 54.890625 33.015625 
L 54.890625 0 
L 45.90625 0 
L 45.90625 32.71875 
Q 45.90625 40.484375 42.875 44.328125 
Q 39.84375 48.1875 33.796875 48.1875 
Q 26.515625 48.1875 22.3125 43.546875 
Q 18.109375 38.921875 18.109375 30.90625 
L 18.109375 0 
L 9.078125 0 
L 9.078125 54.6875 
L 18.109375 54.6875 
L 18.109375 46.1875 
Q 21.34375 51.125 25.703125 53.5625 
Q 30.078125 56 35.796875 56 
Q 45.21875 56 50.046875 50.171875 
Q 54.890625 44.34375 54.890625 33.015625 
z
" id="DejaVuSans-110"/>
     <path d="M 44.390625 34.1875 
Q 47.5625 33.109375 50.5625 29.59375 
Q 53.5625 26.078125 56.59375 19.921875 
L 66.609375 0 
L 56 0 
L 46.6875 18.703125 
Q 43.0625 26.03125 39.671875 28.421875 
Q 36.28125 30.8125 30.421875 30.8125 
L 19.671875 30.8125 
L 19.671875 0 
L 9.8125 0 
L 9.8125 72.90625 
L 32.078125 72.90625 
Q 44.578125 72.90625 50.734375 67.671875 
Q 56.890625 62.453125 56.890625 51.90625 
Q 56.890625 45.015625 53.6875 40.46875 
Q 50.484375 35.9375 44.390625 34.1875 
z
M 19.671875 64.796875 
L 19.671875 38.921875 
L 32.078125 38.921875 
Q 39.203125 38.921875 42.84375 42.21875 
Q 46.484375 45.515625 46.484375 51.90625 
Q 46.484375 58.296875 42.84375 61.546875 
Q 39.203125 64.796875 32.078125 64.796875 
z
" id="DejaVuSans-82"/>
     <path d="M 19.671875 64.796875 
L 19.671875 37.40625 
L 32.078125 37.40625 
Q 38.96875 37.40625 42.71875 40.96875 
Q 46.484375 44.53125 46.484375 51.125 
Q 46.484375 57.671875 42.71875 61.234375 
Q 38.96875 64.796875 32.078125 64.796875 
z
M 9.8125 72.90625 
L 32.078125 72.90625 
Q 44.34375 72.90625 50.609375 67.359375 
Q 56.890625 61.8125 56.890625 51.125 
Q 56.890625 40.328125 50.609375 34.8125 
Q 44.34375 29.296875 32.078125 29.296875 
L 19.671875 29.296875 
L 19.671875 0 
L 9.8125 0 
z
" id="DejaVuSans-80"/>
     <path d="M 53.515625 70.515625 
L 53.515625 60.890625 
Q 47.90625 63.578125 42.921875 64.890625 
Q 37.9375 66.21875 33.296875 66.21875 
Q 25.25 66.21875 20.875 63.09375 
Q 16.5 59.96875 16.5 54.203125 
Q 16.5 49.359375 19.40625 46.890625 
Q 22.3125 44.4375 30.421875 42.921875 
L 36.375 41.703125 
Q 47.40625 39.59375 52.65625 34.296875 
Q 57.90625 29 57.90625 20.125 
Q 57.90625 9.515625 50.796875 4.046875 
Q 43.703125 -1.421875 29.984375 -1.421875 
Q 24.8125 -1.421875 18.96875 -0.25 
Q 13.140625 0.921875 6.890625 3.21875 
L 6.890625 13.375 
Q 12.890625 10.015625 18.65625 8.296875 
Q 24.421875 6.59375 29.984375 6.59375 
Q 38.421875 6.59375 43.015625 9.90625 
Q 47.609375 13.234375 47.609375 19.390625 
Q 47.609375 24.75 44.3125 27.78125 
Q 41.015625 30.8125 33.5 32.328125 
L 27.484375 33.5 
Q 16.453125 35.6875 11.515625 40.375 
Q 6.59375 45.0625 6.59375 53.421875 
Q 6.59375 63.09375 13.40625 68.65625 
Q 20.21875 74.21875 32.171875 74.21875 
Q 37.3125 74.21875 42.625 73.28125 
Q 47.953125 72.359375 53.515625 70.515625 
z
" id="DejaVuSans-83"/>
     <path d="M 45.40625 27.984375 
Q 45.40625 37.75 41.375 43.109375 
Q 37.359375 48.484375 30.078125 48.484375 
Q 22.859375 48.484375 18.828125 43.109375 
Q 14.796875 37.75 14.796875 27.984375 
Q 14.796875 18.265625 18.828125 12.890625 
Q 22.859375 7.515625 30.078125 7.515625 
Q 37.359375 7.515625 41.375 12.890625 
Q 45.40625 18.265625 45.40625 27.984375 
z
M 54.390625 6.78125 
Q 54.390625 -7.171875 48.1875 -13.984375 
Q 42 -20.796875 29.203125 -20.796875 
Q 24.46875 -20.796875 20.265625 -20.09375 
Q 16.0625 -19.390625 12.109375 -17.921875 
L 12.109375 -9.1875 
Q 16.0625 -11.328125 19.921875 -12.34375 
Q 23.78125 -13.375 27.78125 -13.375 
Q 36.625 -13.375 41.015625 -8.765625 
Q 45.40625 -4.15625 45.40625 5.171875 
L 45.40625 9.625 
Q 42.625 4.78125 38.28125 2.390625 
Q 33.9375 0 27.875 0 
Q 17.828125 0 11.671875 7.65625 
Q 5.515625 15.328125 5.515625 27.984375 
Q 5.515625 40.671875 11.671875 48.328125 
Q 17.828125 56 27.875 56 
Q 33.9375 56 38.28125 53.609375 
Q 42.625 51.21875 45.40625 46.390625 
L 45.40625 54.6875 
L 54.390625 54.6875 
z
" id="DejaVuSans-103"/>
    </defs>
    <g transform="translate(381.403125 63.12)scale(0.12 -0.12)">
     <use xlink:href="#DejaVuSans-78"/>
     <use x="74.804688" xlink:href="#DejaVuSans-101"/>
     <use x="136.328125" xlink:href="#DejaVuSans-119"/>
     <use x="218.115234" xlink:href="#DejaVuSans-115"/>
     <use x="270.214844" xlink:href="#DejaVuSans-32"/>
     <use x="302.001953" xlink:href="#DejaVuSans-65"/>
     <use x="370.410156" xlink:href="#DejaVuSans-114"/>
     <use x="411.523438" xlink:href="#DejaVuSans-116"/>
     <use x="450.732422" xlink:href="#DejaVuSans-105"/>
     <use x="478.515625" xlink:href="#DejaVuSans-99"/>
     <use x="533.496094" xlink:href="#DejaVuSans-108"/>
     <use x="561.279297" xlink:href="#DejaVuSans-101"/>
     <use x="622.802734" xlink:href="#DejaVuSans-115"/>
     <use x="674.902344" xlink:href="#DejaVuSans-32"/>
     <use x="706.689453" xlink:href="#DejaVuSans-105"/>
     <use x="734.472656" xlink:href="#DejaVuSans-110"/>
     <use x="797.851562" xlink:href="#DejaVuSans-32"/>
     <use x="829.638672" xlink:href="#DejaVuSans-82"/>
     <use x="894.621094" xlink:href="#DejaVuSans-101"/>
     <use x="956.144531" xlink:href="#DejaVuSans-108"/>
     <use x="983.927734" xlink:href="#DejaVuSans-97"/>
     <use x="1045.207031" xlink:href="#DejaVuSans-116"/>
     <use x="1084.416016" xlink:href="#DejaVuSans-105"/>
     <use x="1112.199219" xlink:href="#DejaVuSans-111"/>
     <use x="1173.380859" xlink:href="#DejaVuSans-110"/>
     <use x="1236.759766" xlink:href="#DejaVuSans-32"/>
     <use x="1268.546875" xlink:href="#DejaVuSans-116"/>
     <use x="1307.755859" xlink:href="#DejaVuSans-111"/>
     <use x="1368.9375" xlink:href="#DejaVuSans-32"/>
     <use x="1400.724609" xlink:href="#DejaVuSans-68"/>
     <use x="1477.726562" xlink:href="#DejaVuSans-101"/>
     <use x="1539.25" xlink:href="#DejaVuSans-97"/>
     <use x="1600.529297" xlink:href="#DejaVuSans-116"/>
     <use x="1639.738281" xlink:href="#DejaVuSans-104"/>
     <use x="1703.117188" xlink:href="#DejaVuSans-115"/>
     <use x="1755.216797" xlink:href="#DejaVuSans-32"/>
     <use x="1787.003906" xlink:href="#DejaVuSans-102"/>
     <use x="1822.208984" xlink:href="#DejaVuSans-114"/>
     <use x="1861.072266" xlink:href="#DejaVuSans-111"/>
     <use x="1922.253906" xlink:href="#DejaVuSans-109"/>
     <use x="2019.666016" xlink:href="#DejaVuSans-32"/>
     <use x="2051.453125" xlink:href="#DejaVuSans-80"/>
     <use x="2108.130859" xlink:href="#DejaVuSans-111"/>
     <use x="2169.3125" xlink:href="#DejaVuSans-108"/>
     <use x="2197.095703" xlink:href="#DejaVuSans-105"/>
     <use x="2224.878906" xlink:href="#DejaVuSans-99"/>
     <use x="2279.859375" xlink:href="#DejaVuSans-101"/>
     <use x="2341.382812" xlink:href="#DejaVuSans-32"/>
     <use x="2373.169922" xlink:href="#DejaVuSans-83"/>
     <use x="2436.646484" xlink:href="#DejaVuSans-104"/>
     <use x="2500.025391" xlink:href="#DejaVuSans-111"/>
     <use x="2561.207031" xlink:href="#DejaVuSans-111"/>
     <use x="2622.388672" xlink:href="#DejaVuSans-116"/>
     <use x="2661.597656" xlink:href="#DejaVuSans-105"/>
     <use x="2689.380859" xlink:href="#DejaVuSans-110"/>
     <use x="2752.759766" xlink:href="#DejaVuSans-103"/>
     <use x="2816.236328" xlink:href="#DejaVuSans-115"/>
    </g>
   </g>
   <g id="legend_1">
    <g id="patch_7">
     <path d="M 142 92.07625 
L 241.3875 92.07625 
Q 243.3875 92.07625 243.3875 90.07625 
L 243.3875 76.12 
Q 243.3875 74.12 241.3875 74.12 
L 142 74.12 
Q 140 74.12 140 76.12 
L 140 90.07625 
Q 140 92.07625 142 92.07625 
z
" style="fill:#ffffff;opacity:0.8;stroke:#cccccc;stroke-linejoin:miter;"/>
    </g>
    <g id="line2d_30">
     <path d="M 144 82.218437 
L 164 82.218437 
" style="fill:none;stroke:#008000;stroke-linecap:square;stroke-width:1.5;"/>
    </g>
    <g id="line2d_31"/>
    <g id="text_16">
     <!-- black_victims -->
     <defs>
      <path d="M 9.078125 75.984375 
L 18.109375 75.984375 
L 18.109375 31.109375 
L 44.921875 54.6875 
L 56.390625 54.6875 
L 27.390625 29.109375 
L 57.625 0 
L 45.90625 0 
L 18.109375 26.703125 
L 18.109375 0 
L 9.078125 0 
z
" id="DejaVuSans-107"/>
      <path d="M 50.984375 -16.609375 
L 50.984375 -23.578125 
L -0.984375 -23.578125 
L -0.984375 -16.609375 
z
" id="DejaVuSans-95"/>
      <path d="M 2.984375 54.6875 
L 12.5 54.6875 
L 29.59375 8.796875 
L 46.6875 54.6875 
L 56.203125 54.6875 
L 35.6875 0 
L 23.484375 0 
z
" id="DejaVuSans-118"/>
     </defs>
     <g transform="translate(172 85.718437)scale(0.1 -0.1)">
      <use xlink:href="#DejaVuSans-98"/>
      <use x="63.476562" xlink:href="#DejaVuSans-108"/>
      <use x="91.259766" xlink:href="#DejaVuSans-97"/>
      <use x="152.539062" xlink:href="#DejaVuSans-99"/>
      <use x="207.519531" xlink:href="#DejaVuSans-107"/>
      <use x="265.429688" xlink:href="#DejaVuSans-95"/>
      <use x="315.429688" xlink:href="#DejaVuSans-118"/>
      <use x="374.609375" xlink:href="#DejaVuSans-105"/>
      <use x="402.392578" xlink:href="#DejaVuSans-99"/>
      <use x="457.373047" xlink:href="#DejaVuSans-116"/>
      <use x="496.582031" xlink:href="#DejaVuSans-105"/>
      <use x="524.365234" xlink:href="#DejaVuSans-109"/>
      <use x="621.777344" xlink:href="#DejaVuSans-115"/>
     </g>
    </g>
   </g>
  </g>
  <g id="axes_2">
   <g id="PolyCollection_1">
    <defs>
     <path d="M 135 -225.186693 
L 135 -72 
L 148.078125 -72 
L 161.15625 -72 
L 174.234375 -72 
L 187.3125 -72 
L 200.390625 -72 
L 213.46875 -72 
L 226.546875 -72 
L 239.625 -72 
L 252.703125 -72 
L 265.78125 -72 
L 278.859375 -72 
L 291.9375 -72 
L 305.015625 -72 
L 318.09375 -72 
L 331.171875 -72 
L 344.25 -72 
L 357.328125 -72 
L 370.40625 -72 
L 383.484375 -72 
L 396.5625 -72 
L 409.640625 -72 
L 422.71875 -72 
L 435.796875 -72 
L 448.875 -72 
L 461.953125 -72 
L 475.03125 -72 
L 488.109375 -72 
L 501.1875 -72 
L 514.265625 -72 
L 527.34375 -72 
L 540.421875 -72 
L 553.5 -72 
L 566.578125 -72 
L 579.65625 -72 
L 592.734375 -72 
L 605.8125 -72 
L 618.890625 -72 
L 631.96875 -72 
L 645.046875 -72 
L 658.125 -72 
L 671.203125 -72 
L 684.28125 -72 
L 697.359375 -72 
L 710.4375 -72 
L 723.515625 -72 
L 736.59375 -72 
L 749.671875 -72 
L 762.75 -72 
L 775.828125 -72 
L 788.90625 -72 
L 801.984375 -72 
L 815.0625 -72 
L 828.140625 -72 
L 841.21875 -72 
L 854.296875 -72 
L 867.375 -72 
L 880.453125 -72 
L 893.53125 -72 
L 906.609375 -72 
L 919.6875 -72 
L 932.765625 -72 
L 945.84375 -72 
L 958.921875 -72 
L 972 -72 
L 972 -323.528767 
L 972 -323.528767 
L 958.921875 -83.347162 
L 945.84375 -83.347162 
L 932.765625 -90.911937 
L 919.6875 -92.803131 
L 906.609375 -121.171037 
L 893.53125 -138.191781 
L 880.453125 -189.254012 
L 867.375 -128.735812 
L 854.296875 -158.994912 
L 841.21875 -183.580431 
L 828.140625 -172.233268 
L 815.0625 -124.953425 
L 801.984375 -107.932681 
L 788.90625 -130.627006 
L 775.828125 -126.844618 
L 762.75 -123.062231 
L 749.671875 -128.735812 
L 736.59375 -113.606262 
L 723.515625 -128.735812 
L 710.4375 -132.5182 
L 697.359375 -124.953425 
L 684.28125 -119.279843 
L 671.203125 -153.321331 
L 658.125 -124.953425 
L 645.046875 -130.627006 
L 631.96875 -141.974168 
L 618.890625 -100.367906 
L 605.8125 -117.38865 
L 592.734375 -113.606262 
L 579.65625 -98.476712 
L 566.578125 -121.171037 
L 553.5 -168.450881 
L 540.421875 -134.409393 
L 527.34375 -151.430137 
L 514.265625 -153.321331 
L 501.1875 -140.082975 
L 488.109375 -128.735812 
L 475.03125 -117.38865 
L 461.953125 -111.715068 
L 448.875 -123.062231 
L 435.796875 -128.735812 
L 422.71875 -147.64775 
L 409.640625 -189.254012 
L 396.5625 -272.466536 
L 383.484375 -219.513112 
L 370.40625 -486.171429 
L 357.328125 -164.668493 
L 344.25 -172.233268 
L 331.171875 -213.83953 
L 318.09375 -172.233268 
L 305.015625 -170.342074 
L 291.9375 -187.362818 
L 278.859375 -297.052055 
L 265.78125 -225.186693 
L 252.703125 -198.70998 
L 239.625 -185.471624 
L 226.546875 -272.466536 
L 213.46875 -234.642661 
L 200.390625 -176.015656 
L 187.3125 -268.684149 
L 174.234375 -315.963992 
L 161.15625 -221.404305 
L 148.078125 -143.865362 
L 135 -225.186693 
z
" id="m9897a5b43c" style="stroke:#808080;stroke-opacity:0.25;"/>
    </defs>
    <g clip-path="url(#pbd799a0c6e)">
     <use style="fill:#808080;fill-opacity:0.25;stroke:#808080;stroke-opacity:0.25;" x="0" xlink:href="#m9897a5b43c" y="576"/>
    </g>
   </g>
   <g id="PolyCollection_2">
    <defs>
     <path d="M 135 -90.911937 
L 135 -72 
L 148.078125 -72 
L 161.15625 -72 
L 174.234375 -72 
L 187.3125 -72 
L 200.390625 -72 
L 213.46875 -72 
L 226.546875 -72 
L 239.625 -72 
L 252.703125 -72 
L 265.78125 -72 
L 278.859375 -72 
L 291.9375 -72 
L 305.015625 -72 
L 318.09375 -72 
L 331.171875 -72 
L 344.25 -72 
L 357.328125 -72 
L 370.40625 -72 
L 383.484375 -72 
L 396.5625 -72 
L 409.640625 -72 
L 422.71875 -72 
L 435.796875 -72 
L 448.875 -72 
L 461.953125 -72 
L 475.03125 -72 
L 488.109375 -72 
L 501.1875 -72 
L 514.265625 -72 
L 527.34375 -72 
L 540.421875 -72 
L 553.5 -72 
L 566.578125 -72 
L 579.65625 -72 
L 592.734375 -72 
L 605.8125 -72 
L 618.890625 -72 
L 631.96875 -72 
L 645.046875 -72 
L 658.125 -72 
L 671.203125 -72 
L 684.28125 -72 
L 697.359375 -72 
L 710.4375 -72 
L 723.515625 -72 
L 736.59375 -72 
L 749.671875 -72 
L 762.75 -72 
L 775.828125 -72 
L 788.90625 -72 
L 801.984375 -72 
L 815.0625 -72 
L 828.140625 -72 
L 841.21875 -72 
L 854.296875 -72 
L 867.375 -72 
L 880.453125 -72 
L 893.53125 -72 
L 906.609375 -72 
L 919.6875 -72 
L 932.765625 -72 
L 945.84375 -72 
L 958.921875 -72 
L 972 -72 
L 972 -151.430137 
L 972 -151.430137 
L 958.921875 -89.020744 
L 945.84375 -98.476712 
L 932.765625 -94.694325 
L 919.6875 -92.803131 
L 906.609375 -134.409393 
L 893.53125 -107.932681 
L 880.453125 -126.844618 
L 867.375 -92.803131 
L 854.296875 -111.715068 
L 841.21875 -111.715068 
L 828.140625 -115.497456 
L 815.0625 -109.823875 
L 801.984375 -100.367906 
L 788.90625 -98.476712 
L 775.828125 -94.694325 
L 762.75 -115.497456 
L 749.671875 -100.367906 
L 736.59375 -106.041487 
L 723.515625 -130.627006 
L 710.4375 -119.279843 
L 697.359375 -109.823875 
L 684.28125 -107.932681 
L 671.203125 -117.38865 
L 658.125 -111.715068 
L 645.046875 -132.5182 
L 631.96875 -117.38865 
L 618.890625 -128.735812 
L 605.8125 -111.715068 
L 592.734375 -94.694325 
L 579.65625 -123.062231 
L 566.578125 -109.823875 
L 553.5 -130.627006 
L 540.421875 -162.777299 
L 527.34375 -94.694325 
L 514.265625 -126.844618 
L 501.1875 -113.606262 
L 488.109375 -140.082975 
L 475.03125 -128.735812 
L 461.953125 -132.5182 
L 448.875 -141.974168 
L 435.796875 -109.823875 
L 422.71875 -181.689237 
L 409.640625 -145.756556 
L 396.5625 -166.559687 
L 383.484375 -179.798043 
L 370.40625 -365.135029 
L 357.328125 -123.062231 
L 344.25 -138.191781 
L 331.171875 -149.538943 
L 318.09375 -128.735812 
L 305.015625 -149.538943 
L 291.9375 -136.300587 
L 278.859375 -189.254012 
L 265.78125 -181.689237 
L 252.703125 -126.844618 
L 239.625 -124.953425 
L 226.546875 -185.471624 
L 213.46875 -117.38865 
L 200.390625 -109.823875 
L 187.3125 -81.455969 
L 174.234375 -83.347162 
L 161.15625 -85.238356 
L 148.078125 -87.12955 
L 135 -90.911937 
z
" id="m25dcd45f71" style="stroke:#000000;stroke-opacity:0.4;"/>
    </defs>
    <g clip-path="url(#pbd799a0c6e)">
     <use style="fill-opacity:0.4;stroke:#000000;stroke-opacity:0.4;" x="0" xlink:href="#m25dcd45f71" y="576"/>
    </g>
   </g>
   <g id="matplotlib.axis_3">
    <g id="ytick_7">
     <g id="line2d_32">
      <defs>
       <path d="M 0 0 
L 3.5 0 
" id="m5bbb2b0372" style="stroke:#000000;stroke-width:0.8;"/>
      </defs>
      <g>
       <use style="stroke:#000000;stroke-width:0.8;" x="972" xlink:href="#m5bbb2b0372" y="504"/>
      </g>
     </g>
     <g id="text_17">
      <!-- 0 -->
      <g transform="translate(979 507.799219)scale(0.1 -0.1)">
       <use xlink:href="#DejaVuSans-48"/>
      </g>
     </g>
    </g>
    <g id="ytick_8">
     <g id="line2d_33">
      <g>
       <use style="stroke:#000000;stroke-width:0.8;" x="972" xlink:href="#m5bbb2b0372" y="409.440313"/>
      </g>
     </g>
     <g id="text_18">
      <!-- 50 -->
      <g transform="translate(979 413.239532)scale(0.1 -0.1)">
       <use xlink:href="#DejaVuSans-53"/>
       <use x="63.623047" xlink:href="#DejaVuSans-48"/>
      </g>
     </g>
    </g>
    <g id="ytick_9">
     <g id="line2d_34">
      <g>
       <use style="stroke:#000000;stroke-width:0.8;" x="972" xlink:href="#m5bbb2b0372" y="314.880626"/>
      </g>
     </g>
     <g id="text_19">
      <!-- 100 -->
      <g transform="translate(979 318.679845)scale(0.1 -0.1)">
       <use xlink:href="#DejaVuSans-49"/>
       <use x="63.623047" xlink:href="#DejaVuSans-48"/>
       <use x="127.246094" xlink:href="#DejaVuSans-48"/>
      </g>
     </g>
    </g>
    <g id="ytick_10">
     <g id="line2d_35">
      <g>
       <use style="stroke:#000000;stroke-width:0.8;" x="972" xlink:href="#m5bbb2b0372" y="220.320939"/>
      </g>
     </g>
     <g id="text_20">
      <!-- 150 -->
      <g transform="translate(979 224.120158)scale(0.1 -0.1)">
       <use xlink:href="#DejaVuSans-49"/>
       <use x="63.623047" xlink:href="#DejaVuSans-53"/>
       <use x="127.246094" xlink:href="#DejaVuSans-48"/>
      </g>
     </g>
    </g>
    <g id="ytick_11">
     <g id="line2d_36">
      <g>
       <use style="stroke:#000000;stroke-width:0.8;" x="972" xlink:href="#m5bbb2b0372" y="125.761252"/>
      </g>
     </g>
     <g id="text_21">
      <!-- 200 -->
      <g transform="translate(979 129.560471)scale(0.1 -0.1)">
       <use xlink:href="#DejaVuSans-50"/>
       <use x="63.623047" xlink:href="#DejaVuSans-48"/>
       <use x="127.246094" xlink:href="#DejaVuSans-48"/>
      </g>
     </g>
    </g>
    <g id="text_22">
     <!-- Number of Hits on NYTimes -->
     <defs>
      <path d="M 9.8125 72.90625 
L 19.671875 72.90625 
L 19.671875 43.015625 
L 55.515625 43.015625 
L 55.515625 72.90625 
L 65.375 72.90625 
L 65.375 0 
L 55.515625 0 
L 55.515625 34.71875 
L 19.671875 34.71875 
L 19.671875 0 
L 9.8125 0 
z
" id="DejaVuSans-72"/>
      <path d="M -0.203125 72.90625 
L 10.40625 72.90625 
L 30.609375 42.921875 
L 50.6875 72.90625 
L 61.28125 72.90625 
L 35.5 34.71875 
L 35.5 0 
L 25.59375 0 
L 25.59375 34.71875 
z
" id="DejaVuSans-89"/>
      <path d="M -0.296875 72.90625 
L 61.375 72.90625 
L 61.375 64.59375 
L 35.5 64.59375 
L 35.5 0 
L 25.59375 0 
L 25.59375 64.59375 
L -0.296875 64.59375 
z
" id="DejaVuSans-84"/>
     </defs>
     <g transform="translate(1009.685938 355.396719)rotate(-90)scale(0.1 -0.1)">
      <use xlink:href="#DejaVuSans-78"/>
      <use x="74.804688" xlink:href="#DejaVuSans-117"/>
      <use x="138.183594" xlink:href="#DejaVuSans-109"/>
      <use x="235.595703" xlink:href="#DejaVuSans-98"/>
      <use x="299.072266" xlink:href="#DejaVuSans-101"/>
      <use x="360.595703" xlink:href="#DejaVuSans-114"/>
      <use x="401.708984" xlink:href="#DejaVuSans-32"/>
      <use x="433.496094" xlink:href="#DejaVuSans-111"/>
      <use x="494.677734" xlink:href="#DejaVuSans-102"/>
      <use x="529.882812" xlink:href="#DejaVuSans-32"/>
      <use x="561.669922" xlink:href="#DejaVuSans-72"/>
      <use x="636.865234" xlink:href="#DejaVuSans-105"/>
      <use x="664.648438" xlink:href="#DejaVuSans-116"/>
      <use x="703.857422" xlink:href="#DejaVuSans-115"/>
      <use x="755.957031" xlink:href="#DejaVuSans-32"/>
      <use x="787.744141" xlink:href="#DejaVuSans-111"/>
      <use x="848.925781" xlink:href="#DejaVuSans-110"/>
      <use x="912.304688" xlink:href="#DejaVuSans-32"/>
      <use x="944.091797" xlink:href="#DejaVuSans-78"/>
      <use x="1018.896484" xlink:href="#DejaVuSans-89"/>
      <use x="1079.980469" xlink:href="#DejaVuSans-84"/>
      <use x="1137.939453" xlink:href="#DejaVuSans-105"/>
      <use x="1165.722656" xlink:href="#DejaVuSans-109"/>
      <use x="1263.134766" xlink:href="#DejaVuSans-101"/>
      <use x="1324.658203" xlink:href="#DejaVuSans-115"/>
     </g>
    </g>
   </g>
   <g id="line2d_37">
    <path clip-path="url(#pbd799a0c6e)" d="M 135 350.813307 
L 148.078125 432.134638 
L 161.15625 354.595695 
L 174.234375 260.036008 
L 187.3125 307.315851 
L 200.390625 399.984344 
L 213.46875 341.357339 
L 226.546875 303.533464 
L 239.625 390.528376 
L 252.703125 377.29002 
L 265.78125 350.813307 
L 278.859375 278.947945 
L 291.9375 388.637182 
L 305.015625 405.657926 
L 318.09375 403.766732 
L 331.171875 362.16047 
L 344.25 403.766732 
L 357.328125 411.331507 
L 370.40625 89.828571 
L 383.484375 356.486888 
L 396.5625 303.533464 
L 409.640625 386.745988 
L 422.71875 428.35225 
L 435.796875 447.264188 
L 448.875 452.937769 
L 461.953125 464.284932 
L 475.03125 458.61135 
L 488.109375 447.264188 
L 501.1875 435.917025 
L 514.265625 422.678669 
L 527.34375 424.569863 
L 540.421875 441.590607 
L 553.5 407.549119 
L 566.578125 454.828963 
L 579.65625 477.523288 
L 592.734375 462.393738 
L 605.8125 458.61135 
L 618.890625 475.632094 
L 631.96875 434.025832 
L 645.046875 445.372994 
L 658.125 451.046575 
L 671.203125 422.678669 
L 684.28125 456.720157 
L 697.359375 451.046575 
L 710.4375 443.4818 
L 723.515625 447.264188 
L 736.59375 462.393738 
L 749.671875 447.264188 
L 762.75 452.937769 
L 775.828125 449.155382 
L 788.90625 445.372994 
L 801.984375 468.067319 
L 815.0625 451.046575 
L 828.140625 403.766732 
L 841.21875 392.419569 
L 854.296875 417.005088 
L 867.375 447.264188 
L 880.453125 386.745988 
L 893.53125 437.808219 
L 906.609375 454.828963 
L 919.6875 483.196869 
L 932.765625 485.088063 
L 945.84375 492.652838 
L 958.921875 492.652838 
L 972 252.471233 
" style="fill:none;stroke:#808080;stroke-linecap:square;stroke-opacity:0.25;stroke-width:1.5;"/>
   </g>
   <g id="line2d_38">
    <path clip-path="url(#pbd799a0c6e)" d="M 135 485.088063 
L 148.078125 488.87045 
L 161.15625 490.761644 
L 174.234375 492.652838 
L 187.3125 494.544031 
L 200.390625 466.176125 
L 213.46875 458.61135 
L 226.546875 390.528376 
L 239.625 451.046575 
L 252.703125 449.155382 
L 265.78125 394.310763 
L 278.859375 386.745988 
L 291.9375 439.699413 
L 305.015625 426.461057 
L 318.09375 447.264188 
L 331.171875 426.461057 
L 344.25 437.808219 
L 357.328125 452.937769 
L 370.40625 210.864971 
L 383.484375 396.201957 
L 396.5625 409.440313 
L 409.640625 430.243444 
L 422.71875 394.310763 
L 435.796875 466.176125 
L 448.875 434.025832 
L 461.953125 443.4818 
L 475.03125 447.264188 
L 488.109375 435.917025 
L 501.1875 462.393738 
L 514.265625 449.155382 
L 527.34375 481.305675 
L 540.421875 413.222701 
L 553.5 445.372994 
L 566.578125 466.176125 
L 579.65625 452.937769 
L 592.734375 481.305675 
L 605.8125 464.284932 
L 618.890625 447.264188 
L 631.96875 458.61135 
L 645.046875 443.4818 
L 658.125 464.284932 
L 671.203125 458.61135 
L 684.28125 468.067319 
L 697.359375 466.176125 
L 710.4375 456.720157 
L 723.515625 445.372994 
L 736.59375 469.958513 
L 749.671875 475.632094 
L 762.75 460.502544 
L 775.828125 481.305675 
L 788.90625 477.523288 
L 801.984375 475.632094 
L 815.0625 466.176125 
L 828.140625 460.502544 
L 841.21875 464.284932 
L 854.296875 464.284932 
L 867.375 483.196869 
L 880.453125 449.155382 
L 893.53125 468.067319 
L 906.609375 441.590607 
L 919.6875 483.196869 
L 932.765625 481.305675 
L 945.84375 477.523288 
L 958.921875 486.979256 
L 972 424.569863 
" style="fill:none;stroke:#000000;stroke-linecap:square;stroke-opacity:0.4;stroke-width:1.5;"/>
   </g>
   <g id="patch_8">
    <path d="M 135 504 
L 135 69.12 
" style="fill:none;stroke:#000000;stroke-linecap:square;stroke-linejoin:miter;stroke-width:0.8;"/>
   </g>
   <g id="patch_9">
    <path d="M 972 504 
L 972 69.12 
" style="fill:none;stroke:#000000;stroke-linecap:square;stroke-linejoin:miter;stroke-width:0.8;"/>
   </g>
   <g id="patch_10">
    <path d="M 135 504 
L 972 504 
" style="fill:none;stroke:#000000;stroke-linecap:square;stroke-linejoin:miter;stroke-width:0.8;"/>
   </g>
   <g id="patch_11">
    <path d="M 135 69.12 
L 972 69.12 
" style="fill:none;stroke:#000000;stroke-linecap:square;stroke-linejoin:miter;stroke-width:0.8;"/>
   </g>
   <g id="legend_2">
    <g id="patch_12">
     <path d="M 814.507812 107.0325 
L 965 107.0325 
Q 967 107.0325 967 105.0325 
L 967 76.12 
Q 967 74.12 965 74.12 
L 814.507812 74.12 
Q 812.507812 74.12 812.507812 76.12 
L 812.507812 105.0325 
Q 812.507812 107.0325 814.507812 107.0325 
z
" style="fill:#ffffff;opacity:0.8;stroke:#cccccc;stroke-linejoin:miter;"/>
    </g>
    <g id="patch_13">
     <path d="M 816.507812 85.718438 
L 836.507812 85.718438 
L 836.507812 78.718438 
L 816.507812 78.718438 
z
" style="fill:#808080;opacity:0.25;stroke:#808080;stroke-linejoin:miter;"/>
    </g>
    <g id="text_23">
     <!-- police_brutality_articles -->
     <defs>
      <path d="M 18.109375 8.203125 
L 18.109375 -20.796875 
L 9.078125 -20.796875 
L 9.078125 54.6875 
L 18.109375 54.6875 
L 18.109375 46.390625 
Q 20.953125 51.265625 25.265625 53.625 
Q 29.59375 56 35.59375 56 
Q 45.5625 56 51.78125 48.09375 
Q 58.015625 40.1875 58.015625 27.296875 
Q 58.015625 14.40625 51.78125 6.484375 
Q 45.5625 -1.421875 35.59375 -1.421875 
Q 29.59375 -1.421875 25.265625 0.953125 
Q 20.953125 3.328125 18.109375 8.203125 
z
M 48.6875 27.296875 
Q 48.6875 37.203125 44.609375 42.84375 
Q 40.53125 48.484375 33.40625 48.484375 
Q 26.265625 48.484375 22.1875 42.84375 
Q 18.109375 37.203125 18.109375 27.296875 
Q 18.109375 17.390625 22.1875 11.75 
Q 26.265625 6.109375 33.40625 6.109375 
Q 40.53125 6.109375 44.609375 11.75 
Q 48.6875 17.390625 48.6875 27.296875 
z
" id="DejaVuSans-112"/>
      <path d="M 32.171875 -5.078125 
Q 28.375 -14.84375 24.75 -17.8125 
Q 21.140625 -20.796875 15.09375 -20.796875 
L 7.90625 -20.796875 
L 7.90625 -13.28125 
L 13.1875 -13.28125 
Q 16.890625 -13.28125 18.9375 -11.515625 
Q 21 -9.765625 23.484375 -3.21875 
L 25.09375 0.875 
L 2.984375 54.6875 
L 12.5 54.6875 
L 29.59375 11.921875 
L 46.6875 54.6875 
L 56.203125 54.6875 
z
" id="DejaVuSans-121"/>
     </defs>
     <g transform="translate(844.507812 85.718438)scale(0.1 -0.1)">
      <use xlink:href="#DejaVuSans-112"/>
      <use x="63.476562" xlink:href="#DejaVuSans-111"/>
      <use x="124.658203" xlink:href="#DejaVuSans-108"/>
      <use x="152.441406" xlink:href="#DejaVuSans-105"/>
      <use x="180.224609" xlink:href="#DejaVuSans-99"/>
      <use x="235.205078" xlink:href="#DejaVuSans-101"/>
      <use x="296.728516" xlink:href="#DejaVuSans-95"/>
      <use x="346.728516" xlink:href="#DejaVuSans-98"/>
      <use x="410.205078" xlink:href="#DejaVuSans-114"/>
      <use x="451.318359" xlink:href="#DejaVuSans-117"/>
      <use x="514.697266" xlink:href="#DejaVuSans-116"/>
      <use x="553.90625" xlink:href="#DejaVuSans-97"/>
      <use x="615.185547" xlink:href="#DejaVuSans-108"/>
      <use x="642.96875" xlink:href="#DejaVuSans-105"/>
      <use x="670.751953" xlink:href="#DejaVuSans-116"/>
      <use x="709.960938" xlink:href="#DejaVuSans-121"/>
      <use x="769.140625" xlink:href="#DejaVuSans-95"/>
      <use x="819.140625" xlink:href="#DejaVuSans-97"/>
      <use x="880.419922" xlink:href="#DejaVuSans-114"/>
      <use x="921.533203" xlink:href="#DejaVuSans-116"/>
      <use x="960.742188" xlink:href="#DejaVuSans-105"/>
      <use x="988.525391" xlink:href="#DejaVuSans-99"/>
      <use x="1043.505859" xlink:href="#DejaVuSans-108"/>
      <use x="1071.289062" xlink:href="#DejaVuSans-101"/>
      <use x="1132.8125" xlink:href="#DejaVuSans-115"/>
     </g>
    </g>
    <g id="patch_14">
     <path d="M 816.507812 100.674688 
L 836.507812 100.674688 
L 836.507812 93.674688 
L 816.507812 93.674688 
z
" style="opacity:0.4;stroke:#000000;stroke-linejoin:miter;"/>
    </g>
    <g id="text_24">
     <!-- BLM_articles -->
     <defs>
      <path d="M 19.671875 34.8125 
L 19.671875 8.109375 
L 35.5 8.109375 
Q 43.453125 8.109375 47.28125 11.40625 
Q 51.125 14.703125 51.125 21.484375 
Q 51.125 28.328125 47.28125 31.5625 
Q 43.453125 34.8125 35.5 34.8125 
z
M 19.671875 64.796875 
L 19.671875 42.828125 
L 34.28125 42.828125 
Q 41.5 42.828125 45.03125 45.53125 
Q 48.578125 48.25 48.578125 53.8125 
Q 48.578125 59.328125 45.03125 62.0625 
Q 41.5 64.796875 34.28125 64.796875 
z
M 9.8125 72.90625 
L 35.015625 72.90625 
Q 46.296875 72.90625 52.390625 68.21875 
Q 58.5 63.53125 58.5 54.890625 
Q 58.5 48.1875 55.375 44.234375 
Q 52.25 40.28125 46.1875 39.3125 
Q 53.46875 37.75 57.5 32.78125 
Q 61.53125 27.828125 61.53125 20.40625 
Q 61.53125 10.640625 54.890625 5.3125 
Q 48.25 0 35.984375 0 
L 9.8125 0 
z
" id="DejaVuSans-66"/>
      <path d="M 9.8125 72.90625 
L 19.671875 72.90625 
L 19.671875 8.296875 
L 55.171875 8.296875 
L 55.171875 0 
L 9.8125 0 
z
" id="DejaVuSans-76"/>
      <path d="M 9.8125 72.90625 
L 24.515625 72.90625 
L 43.109375 23.296875 
L 61.8125 72.90625 
L 76.515625 72.90625 
L 76.515625 0 
L 66.890625 0 
L 66.890625 64.015625 
L 48.09375 14.015625 
L 38.1875 14.015625 
L 19.390625 64.015625 
L 19.390625 0 
L 9.8125 0 
z
" id="DejaVuSans-77"/>
     </defs>
     <g transform="translate(844.507812 100.674688)scale(0.1 -0.1)">
      <use xlink:href="#DejaVuSans-66"/>
      <use x="68.603516" xlink:href="#DejaVuSans-76"/>
      <use x="124.316406" xlink:href="#DejaVuSans-77"/>
      <use x="210.595703" xlink:href="#DejaVuSans-95"/>
      <use x="260.595703" xlink:href="#DejaVuSans-97"/>
      <use x="321.875" xlink:href="#DejaVuSans-114"/>
      <use x="362.988281" xlink:href="#DejaVuSans-116"/>
      <use x="402.197266" xlink:href="#DejaVuSans-105"/>
      <use x="429.980469" xlink:href="#DejaVuSans-99"/>
      <use x="484.960938" xlink:href="#DejaVuSans-108"/>
      <use x="512.744141" xlink:href="#DejaVuSans-101"/>
      <use x="574.267578" xlink:href="#DejaVuSans-115"/>
     </g>
    </g>
   </g>
  </g>
 </g>
 <defs>
  <clipPath id="pbd799a0c6e">
   <rect height="434.88" width="837" x="135" y="69.12"/>
  </clipPath>
 </defs>
</svg>
