<?xml version="1.0" encoding="utf-8" standalone="no"?>
<!DOCTYPE svg PUBLIC "-//W3C//DTD SVG 1.1//EN"
  "http://www.w3.org/Graphics/SVG/1.1/DTD/svg11.dtd">
<!-- Created with matplotlib (https://matplotlib.org/) -->
<svg height="432pt" version="1.1" viewBox="0 0 720 432" width="720pt" xmlns="http://www.w3.org/2000/svg" xmlns:xlink="http://www.w3.org/1999/xlink">
 <defs>
  <style type="text/css">
*{stroke-linecap:butt;stroke-linejoin:round;}
  </style>
 </defs>
 <g id="figure_1">
  <g id="patch_1">
   <path d="M 0 432 
L 720 432 
L 720 0 
L 0 0 
z
" style="fill:#ffffff;"/>
  </g>
  <g id="axes_1">
   <g id="patch_2">
    <path d="M 49.675 390.2 
L 709.2 390.2 
L 709.2 31.3232 
L 49.675 31.3232 
z
" style="fill:#ffffff;"/>
   </g>
   <g id="matplotlib.axis_1">
    <g id="xtick_1">
     <g id="line2d_1">
      <defs>
       <path d="M 0 0 
L 0 3.5 
" id="m4bb2522212" style="stroke:#000000;stroke-width:0.8;"/>
      </defs>
      <g>
       <use style="stroke:#000000;stroke-width:0.8;" x="79.653409" xlink:href="#m4bb2522212" y="390.2"/>
      </g>
     </g>
     <g id="text_1">
      <!-- 1998-11 -->
      <defs>
       <path d="M 12.40625 8.296875 
L 28.515625 8.296875 
L 28.515625 63.921875 
L 10.984375 60.40625 
L 10.984375 69.390625 
L 28.421875 72.90625 
L 38.28125 72.90625 
L 38.28125 8.296875 
L 54.390625 8.296875 
L 54.390625 0 
L 12.40625 0 
z
" id="DejaVuSans-49"/>
       <path d="M 10.984375 1.515625 
L 10.984375 10.5 
Q 14.703125 8.734375 18.5 7.8125 
Q 22.3125 6.890625 25.984375 6.890625 
Q 35.75 6.890625 40.890625 13.453125 
Q 46.046875 20.015625 46.78125 33.40625 
Q 43.953125 29.203125 39.59375 26.953125 
Q 35.25 24.703125 29.984375 24.703125 
Q 19.046875 24.703125 12.671875 31.3125 
Q 6.296875 37.9375 6.296875 49.421875 
Q 6.296875 60.640625 12.9375 67.421875 
Q 19.578125 74.21875 30.609375 74.21875 
Q 43.265625 74.21875 49.921875 64.515625 
Q 56.59375 54.828125 56.59375 36.375 
Q 56.59375 19.140625 48.40625 8.859375 
Q 40.234375 -1.421875 26.421875 -1.421875 
Q 22.703125 -1.421875 18.890625 -0.6875 
Q 15.09375 0.046875 10.984375 1.515625 
z
M 30.609375 32.421875 
Q 37.25 32.421875 41.125 36.953125 
Q 45.015625 41.5 45.015625 49.421875 
Q 45.015625 57.28125 41.125 61.84375 
Q 37.25 66.40625 30.609375 66.40625 
Q 23.96875 66.40625 20.09375 61.84375 
Q 16.21875 57.28125 16.21875 49.421875 
Q 16.21875 41.5 20.09375 36.953125 
Q 23.96875 32.421875 30.609375 32.421875 
z
" id="DejaVuSans-57"/>
       <path d="M 31.78125 34.625 
Q 24.75 34.625 20.71875 30.859375 
Q 16.703125 27.09375 16.703125 20.515625 
Q 16.703125 13.921875 20.71875 10.15625 
Q 24.75 6.390625 31.78125 6.390625 
Q 38.8125 6.390625 42.859375 10.171875 
Q 46.921875 13.96875 46.921875 20.515625 
Q 46.921875 27.09375 42.890625 30.859375 
Q 38.875 34.625 31.78125 34.625 
z
M 21.921875 38.8125 
Q 15.578125 40.375 12.03125 44.71875 
Q 8.5 49.078125 8.5 55.328125 
Q 8.5 64.0625 14.71875 69.140625 
Q 20.953125 74.21875 31.78125 74.21875 
Q 42.671875 74.21875 48.875 69.140625 
Q 55.078125 64.0625 55.078125 55.328125 
Q 55.078125 49.078125 51.53125 44.71875 
Q 48 40.375 41.703125 38.8125 
Q 48.828125 37.15625 52.796875 32.3125 
Q 56.78125 27.484375 56.78125 20.515625 
Q 56.78125 9.90625 50.3125 4.234375 
Q 43.84375 -1.421875 31.78125 -1.421875 
Q 19.734375 -1.421875 13.25 4.234375 
Q 6.78125 9.90625 6.78125 20.515625 
Q 6.78125 27.484375 10.78125 32.3125 
Q 14.796875 37.15625 21.921875 38.8125 
z
M 18.3125 54.390625 
Q 18.3125 48.734375 21.84375 45.5625 
Q 25.390625 42.390625 31.78125 42.390625 
Q 38.140625 42.390625 41.71875 45.5625 
Q 45.3125 48.734375 45.3125 54.390625 
Q 45.3125 60.0625 41.71875 63.234375 
Q 38.140625 66.40625 31.78125 66.40625 
Q 25.390625 66.40625 21.84375 63.234375 
Q 18.3125 60.0625 18.3125 54.390625 
z
" id="DejaVuSans-56"/>
       <path d="M 4.890625 31.390625 
L 31.203125 31.390625 
L 31.203125 23.390625 
L 4.890625 23.390625 
z
" id="DejaVuSans-45"/>
      </defs>
      <g transform="translate(58.762003 404.798438)scale(0.1 -0.1)">
       <use xlink:href="#DejaVuSans-49"/>
       <use x="63.623047" xlink:href="#DejaVuSans-57"/>
       <use x="127.246094" xlink:href="#DejaVuSans-57"/>
       <use x="190.869141" xlink:href="#DejaVuSans-56"/>
       <use x="254.492188" xlink:href="#DejaVuSans-45"/>
       <use x="290.576172" xlink:href="#DejaVuSans-49"/>
       <use x="354.199219" xlink:href="#DejaVuSans-49"/>
      </g>
     </g>
    </g>
    <g id="xtick_2">
     <g id="line2d_2">
      <g>
       <use style="stroke:#000000;stroke-width:0.8;" x="196.75657" xlink:href="#m4bb2522212" y="390.2"/>
      </g>
     </g>
     <g id="text_2">
      <!-- 2003-01 -->
      <defs>
       <path d="M 19.1875 8.296875 
L 53.609375 8.296875 
L 53.609375 0 
L 7.328125 0 
L 7.328125 8.296875 
Q 12.9375 14.109375 22.625 23.890625 
Q 32.328125 33.6875 34.8125 36.53125 
Q 39.546875 41.84375 41.421875 45.53125 
Q 43.3125 49.21875 43.3125 52.78125 
Q 43.3125 58.59375 39.234375 62.25 
Q 35.15625 65.921875 28.609375 65.921875 
Q 23.96875 65.921875 18.8125 64.3125 
Q 13.671875 62.703125 7.8125 59.421875 
L 7.8125 69.390625 
Q 13.765625 71.78125 18.9375 73 
Q 24.125 74.21875 28.421875 74.21875 
Q 39.75 74.21875 46.484375 68.546875 
Q 53.21875 62.890625 53.21875 53.421875 
Q 53.21875 48.921875 51.53125 44.890625 
Q 49.859375 40.875 45.40625 35.40625 
Q 44.1875 33.984375 37.640625 27.21875 
Q 31.109375 20.453125 19.1875 8.296875 
z
" id="DejaVuSans-50"/>
       <path d="M 31.78125 66.40625 
Q 24.171875 66.40625 20.328125 58.90625 
Q 16.5 51.421875 16.5 36.375 
Q 16.5 21.390625 20.328125 13.890625 
Q 24.171875 6.390625 31.78125 6.390625 
Q 39.453125 6.390625 43.28125 13.890625 
Q 47.125 21.390625 47.125 36.375 
Q 47.125 51.421875 43.28125 58.90625 
Q 39.453125 66.40625 31.78125 66.40625 
z
M 31.78125 74.21875 
Q 44.046875 74.21875 50.515625 64.515625 
Q 56.984375 54.828125 56.984375 36.375 
Q 56.984375 17.96875 50.515625 8.265625 
Q 44.046875 -1.421875 31.78125 -1.421875 
Q 19.53125 -1.421875 13.0625 8.265625 
Q 6.59375 17.96875 6.59375 36.375 
Q 6.59375 54.828125 13.0625 64.515625 
Q 19.53125 74.21875 31.78125 74.21875 
z
" id="DejaVuSans-48"/>
       <path d="M 40.578125 39.3125 
Q 47.65625 37.796875 51.625 33 
Q 55.609375 28.21875 55.609375 21.1875 
Q 55.609375 10.40625 48.1875 4.484375 
Q 40.765625 -1.421875 27.09375 -1.421875 
Q 22.515625 -1.421875 17.65625 -0.515625 
Q 12.796875 0.390625 7.625 2.203125 
L 7.625 11.71875 
Q 11.71875 9.328125 16.59375 8.109375 
Q 21.484375 6.890625 26.8125 6.890625 
Q 36.078125 6.890625 40.9375 10.546875 
Q 45.796875 14.203125 45.796875 21.1875 
Q 45.796875 27.640625 41.28125 31.265625 
Q 36.765625 34.90625 28.71875 34.90625 
L 20.21875 34.90625 
L 20.21875 43.015625 
L 29.109375 43.015625 
Q 36.375 43.015625 40.234375 45.921875 
Q 44.09375 48.828125 44.09375 54.296875 
Q 44.09375 59.90625 40.109375 62.90625 
Q 36.140625 65.921875 28.71875 65.921875 
Q 24.65625 65.921875 20.015625 65.03125 
Q 15.375 64.15625 9.8125 62.3125 
L 9.8125 71.09375 
Q 15.4375 72.65625 20.34375 73.4375 
Q 25.25 74.21875 29.59375 74.21875 
Q 40.828125 74.21875 47.359375 69.109375 
Q 53.90625 64.015625 53.90625 55.328125 
Q 53.90625 49.265625 50.4375 45.09375 
Q 46.96875 40.921875 40.578125 39.3125 
z
" id="DejaVuSans-51"/>
      </defs>
      <g transform="translate(175.865163 404.798438)scale(0.1 -0.1)">
       <use xlink:href="#DejaVuSans-50"/>
       <use x="63.623047" xlink:href="#DejaVuSans-48"/>
       <use x="127.246094" xlink:href="#DejaVuSans-48"/>
       <use x="190.869141" xlink:href="#DejaVuSans-51"/>
       <use x="254.492188" xlink:href="#DejaVuSans-45"/>
       <use x="290.576172" xlink:href="#DejaVuSans-48"/>
       <use x="354.199219" xlink:href="#DejaVuSans-49"/>
      </g>
     </g>
    </g>
    <g id="xtick_3">
     <g id="line2d_3">
      <g>
       <use style="stroke:#000000;stroke-width:0.8;" x="313.85973" xlink:href="#m4bb2522212" y="390.2"/>
      </g>
     </g>
     <g id="text_3">
      <!-- 2007-03 -->
      <defs>
       <path d="M 8.203125 72.90625 
L 55.078125 72.90625 
L 55.078125 68.703125 
L 28.609375 0 
L 18.3125 0 
L 43.21875 64.59375 
L 8.203125 64.59375 
z
" id="DejaVuSans-55"/>
      </defs>
      <g transform="translate(292.968324 404.798438)scale(0.1 -0.1)">
       <use xlink:href="#DejaVuSans-50"/>
       <use x="63.623047" xlink:href="#DejaVuSans-48"/>
       <use x="127.246094" xlink:href="#DejaVuSans-48"/>
       <use x="190.869141" xlink:href="#DejaVuSans-55"/>
       <use x="254.492188" xlink:href="#DejaVuSans-45"/>
       <use x="290.576172" xlink:href="#DejaVuSans-48"/>
       <use x="354.199219" xlink:href="#DejaVuSans-51"/>
      </g>
     </g>
    </g>
    <g id="xtick_4">
     <g id="line2d_4">
      <g>
       <use style="stroke:#000000;stroke-width:0.8;" x="430.962891" xlink:href="#m4bb2522212" y="390.2"/>
      </g>
     </g>
     <g id="text_4">
      <!-- 2011-05 -->
      <defs>
       <path d="M 10.796875 72.90625 
L 49.515625 72.90625 
L 49.515625 64.59375 
L 19.828125 64.59375 
L 19.828125 46.734375 
Q 21.96875 47.46875 24.109375 47.828125 
Q 26.265625 48.1875 28.421875 48.1875 
Q 40.625 48.1875 47.75 41.5 
Q 54.890625 34.8125 54.890625 23.390625 
Q 54.890625 11.625 47.5625 5.09375 
Q 40.234375 -1.421875 26.90625 -1.421875 
Q 22.3125 -1.421875 17.546875 -0.640625 
Q 12.796875 0.140625 7.71875 1.703125 
L 7.71875 11.625 
Q 12.109375 9.234375 16.796875 8.0625 
Q 21.484375 6.890625 26.703125 6.890625 
Q 35.15625 6.890625 40.078125 11.328125 
Q 45.015625 15.765625 45.015625 23.390625 
Q 45.015625 31 40.078125 35.4375 
Q 35.15625 39.890625 26.703125 39.890625 
Q 22.75 39.890625 18.8125 39.015625 
Q 14.890625 38.140625 10.796875 36.28125 
z
" id="DejaVuSans-53"/>
      </defs>
      <g transform="translate(410.071484 404.798438)scale(0.1 -0.1)">
       <use xlink:href="#DejaVuSans-50"/>
       <use x="63.623047" xlink:href="#DejaVuSans-48"/>
       <use x="127.246094" xlink:href="#DejaVuSans-49"/>
       <use x="190.869141" xlink:href="#DejaVuSans-49"/>
       <use x="254.492188" xlink:href="#DejaVuSans-45"/>
       <use x="290.576172" xlink:href="#DejaVuSans-48"/>
       <use x="354.199219" xlink:href="#DejaVuSans-53"/>
      </g>
     </g>
    </g>
    <g id="xtick_5">
     <g id="line2d_5">
      <g>
       <use style="stroke:#000000;stroke-width:0.8;" x="548.066051" xlink:href="#m4bb2522212" y="390.2"/>
      </g>
     </g>
     <g id="text_5">
      <!-- 2015-07 -->
      <g transform="translate(527.174645 404.798438)scale(0.1 -0.1)">
       <use xlink:href="#DejaVuSans-50"/>
       <use x="63.623047" xlink:href="#DejaVuSans-48"/>
       <use x="127.246094" xlink:href="#DejaVuSans-49"/>
       <use x="190.869141" xlink:href="#DejaVuSans-53"/>
       <use x="254.492188" xlink:href="#DejaVuSans-45"/>
       <use x="290.576172" xlink:href="#DejaVuSans-48"/>
       <use x="354.199219" xlink:href="#DejaVuSans-55"/>
      </g>
     </g>
    </g>
    <g id="xtick_6">
     <g id="line2d_6">
      <g>
       <use style="stroke:#000000;stroke-width:0.8;" x="665.169212" xlink:href="#m4bb2522212" y="390.2"/>
      </g>
     </g>
     <g id="text_6">
      <!-- 2019-09 -->
      <g transform="translate(644.277805 404.798438)scale(0.1 -0.1)">
       <use xlink:href="#DejaVuSans-50"/>
       <use x="63.623047" xlink:href="#DejaVuSans-48"/>
       <use x="127.246094" xlink:href="#DejaVuSans-49"/>
       <use x="190.869141" xlink:href="#DejaVuSans-57"/>
       <use x="254.492188" xlink:href="#DejaVuSans-45"/>
       <use x="290.576172" xlink:href="#DejaVuSans-48"/>
       <use x="354.199219" xlink:href="#DejaVuSans-57"/>
      </g>
     </g>
    </g>
    <g id="text_7">
     <!-- Date -->
     <defs>
      <path d="M 19.671875 64.796875 
L 19.671875 8.109375 
L 31.59375 8.109375 
Q 46.6875 8.109375 53.6875 14.9375 
Q 60.6875 21.78125 60.6875 36.53125 
Q 60.6875 51.171875 53.6875 57.984375 
Q 46.6875 64.796875 31.59375 64.796875 
z
M 9.8125 72.90625 
L 30.078125 72.90625 
Q 51.265625 72.90625 61.171875 64.09375 
Q 71.09375 55.28125 71.09375 36.53125 
Q 71.09375 17.671875 61.125 8.828125 
Q 51.171875 0 30.078125 0 
L 9.8125 0 
z
" id="DejaVuSans-68"/>
      <path d="M 34.28125 27.484375 
Q 23.390625 27.484375 19.1875 25 
Q 14.984375 22.515625 14.984375 16.5 
Q 14.984375 11.71875 18.140625 8.90625 
Q 21.296875 6.109375 26.703125 6.109375 
Q 34.1875 6.109375 38.703125 11.40625 
Q 43.21875 16.703125 43.21875 25.484375 
L 43.21875 27.484375 
z
M 52.203125 31.203125 
L 52.203125 0 
L 43.21875 0 
L 43.21875 8.296875 
Q 40.140625 3.328125 35.546875 0.953125 
Q 30.953125 -1.421875 24.3125 -1.421875 
Q 15.921875 -1.421875 10.953125 3.296875 
Q 6 8.015625 6 15.921875 
Q 6 25.140625 12.171875 29.828125 
Q 18.359375 34.515625 30.609375 34.515625 
L 43.21875 34.515625 
L 43.21875 35.40625 
Q 43.21875 41.609375 39.140625 45 
Q 35.0625 48.390625 27.6875 48.390625 
Q 23 48.390625 18.546875 47.265625 
Q 14.109375 46.140625 10.015625 43.890625 
L 10.015625 52.203125 
Q 14.9375 54.109375 19.578125 55.046875 
Q 24.21875 56 28.609375 56 
Q 40.484375 56 46.34375 49.84375 
Q 52.203125 43.703125 52.203125 31.203125 
z
" id="DejaVuSans-97"/>
      <path d="M 18.3125 70.21875 
L 18.3125 54.6875 
L 36.8125 54.6875 
L 36.8125 47.703125 
L 18.3125 47.703125 
L 18.3125 18.015625 
Q 18.3125 11.328125 20.140625 9.421875 
Q 21.96875 7.515625 27.59375 7.515625 
L 36.8125 7.515625 
L 36.8125 0 
L 27.59375 0 
Q 17.1875 0 13.234375 3.875 
Q 9.28125 7.765625 9.28125 18.015625 
L 9.28125 47.703125 
L 2.6875 47.703125 
L 2.6875 54.6875 
L 9.28125 54.6875 
L 9.28125 70.21875 
z
" id="DejaVuSans-116"/>
      <path d="M 56.203125 29.59375 
L 56.203125 25.203125 
L 14.890625 25.203125 
Q 15.484375 15.921875 20.484375 11.0625 
Q 25.484375 6.203125 34.421875 6.203125 
Q 39.59375 6.203125 44.453125 7.46875 
Q 49.3125 8.734375 54.109375 11.28125 
L 54.109375 2.78125 
Q 49.265625 0.734375 44.1875 -0.34375 
Q 39.109375 -1.421875 33.890625 -1.421875 
Q 20.796875 -1.421875 13.15625 6.1875 
Q 5.515625 13.8125 5.515625 26.8125 
Q 5.515625 40.234375 12.765625 48.109375 
Q 20.015625 56 32.328125 56 
Q 43.359375 56 49.78125 48.890625 
Q 56.203125 41.796875 56.203125 29.59375 
z
M 47.21875 32.234375 
Q 47.125 39.59375 43.09375 43.984375 
Q 39.0625 48.390625 32.421875 48.390625 
Q 24.90625 48.390625 20.390625 44.140625 
Q 15.875 39.890625 15.1875 32.171875 
z
" id="DejaVuSans-101"/>
     </defs>
     <g transform="translate(367.486719 418.476562)scale(0.1 -0.1)">
      <use xlink:href="#DejaVuSans-68"/>
      <use x="77.001953" xlink:href="#DejaVuSans-97"/>
      <use x="138.28125" xlink:href="#DejaVuSans-116"/>
      <use x="177.490234" xlink:href="#DejaVuSans-101"/>
     </g>
    </g>
   </g>
   <g id="matplotlib.axis_2">
    <g id="ytick_1">
     <g id="line2d_7">
      <defs>
       <path d="M 0 0 
L -3.5 0 
" id="m919d1b4d8e" style="stroke:#000000;stroke-width:0.8;"/>
      </defs>
      <g>
       <use style="stroke:#000000;stroke-width:0.8;" x="49.675" xlink:href="#m919d1b4d8e" y="390.2"/>
      </g>
     </g>
     <g id="text_8">
      <!-- 0 -->
      <g transform="translate(36.3125 393.999219)scale(0.1 -0.1)">
       <use xlink:href="#DejaVuSans-48"/>
      </g>
     </g>
    </g>
    <g id="ytick_2">
     <g id="line2d_8">
      <g>
       <use style="stroke:#000000;stroke-width:0.8;" x="49.675" xlink:href="#m919d1b4d8e" y="338.931886"/>
      </g>
     </g>
     <g id="text_9">
      <!-- 10000 -->
      <g transform="translate(10.8625 342.731104)scale(0.1 -0.1)">
       <use xlink:href="#DejaVuSans-49"/>
       <use x="63.623047" xlink:href="#DejaVuSans-48"/>
       <use x="127.246094" xlink:href="#DejaVuSans-48"/>
       <use x="190.869141" xlink:href="#DejaVuSans-48"/>
       <use x="254.492188" xlink:href="#DejaVuSans-48"/>
      </g>
     </g>
    </g>
    <g id="ytick_3">
     <g id="line2d_9">
      <g>
       <use style="stroke:#000000;stroke-width:0.8;" x="49.675" xlink:href="#m919d1b4d8e" y="287.663771"/>
      </g>
     </g>
     <g id="text_10">
      <!-- 20000 -->
      <g transform="translate(10.8625 291.46299)scale(0.1 -0.1)">
       <use xlink:href="#DejaVuSans-50"/>
       <use x="63.623047" xlink:href="#DejaVuSans-48"/>
       <use x="127.246094" xlink:href="#DejaVuSans-48"/>
       <use x="190.869141" xlink:href="#DejaVuSans-48"/>
       <use x="254.492188" xlink:href="#DejaVuSans-48"/>
      </g>
     </g>
    </g>
    <g id="ytick_4">
     <g id="line2d_10">
      <g>
       <use style="stroke:#000000;stroke-width:0.8;" x="49.675" xlink:href="#m919d1b4d8e" y="236.395657"/>
      </g>
     </g>
     <g id="text_11">
      <!-- 30000 -->
      <g transform="translate(10.8625 240.194876)scale(0.1 -0.1)">
       <use xlink:href="#DejaVuSans-51"/>
       <use x="63.623047" xlink:href="#DejaVuSans-48"/>
       <use x="127.246094" xlink:href="#DejaVuSans-48"/>
       <use x="190.869141" xlink:href="#DejaVuSans-48"/>
       <use x="254.492188" xlink:href="#DejaVuSans-48"/>
      </g>
     </g>
    </g>
    <g id="ytick_5">
     <g id="line2d_11">
      <g>
       <use style="stroke:#000000;stroke-width:0.8;" x="49.675" xlink:href="#m919d1b4d8e" y="185.127543"/>
      </g>
     </g>
     <g id="text_12">
      <!-- 40000 -->
      <defs>
       <path d="M 37.796875 64.3125 
L 12.890625 25.390625 
L 37.796875 25.390625 
z
M 35.203125 72.90625 
L 47.609375 72.90625 
L 47.609375 25.390625 
L 58.015625 25.390625 
L 58.015625 17.1875 
L 47.609375 17.1875 
L 47.609375 0 
L 37.796875 0 
L 37.796875 17.1875 
L 4.890625 17.1875 
L 4.890625 26.703125 
z
" id="DejaVuSans-52"/>
      </defs>
      <g transform="translate(10.8625 188.926762)scale(0.1 -0.1)">
       <use xlink:href="#DejaVuSans-52"/>
       <use x="63.623047" xlink:href="#DejaVuSans-48"/>
       <use x="127.246094" xlink:href="#DejaVuSans-48"/>
       <use x="190.869141" xlink:href="#DejaVuSans-48"/>
       <use x="254.492188" xlink:href="#DejaVuSans-48"/>
      </g>
     </g>
    </g>
    <g id="ytick_6">
     <g id="line2d_12">
      <g>
       <use style="stroke:#000000;stroke-width:0.8;" x="49.675" xlink:href="#m919d1b4d8e" y="133.859429"/>
      </g>
     </g>
     <g id="text_13">
      <!-- 50000 -->
      <g transform="translate(10.8625 137.658647)scale(0.1 -0.1)">
       <use xlink:href="#DejaVuSans-53"/>
       <use x="63.623047" xlink:href="#DejaVuSans-48"/>
       <use x="127.246094" xlink:href="#DejaVuSans-48"/>
       <use x="190.869141" xlink:href="#DejaVuSans-48"/>
       <use x="254.492188" xlink:href="#DejaVuSans-48"/>
      </g>
     </g>
    </g>
    <g id="ytick_7">
     <g id="line2d_13">
      <g>
       <use style="stroke:#000000;stroke-width:0.8;" x="49.675" xlink:href="#m919d1b4d8e" y="82.591314"/>
      </g>
     </g>
     <g id="text_14">
      <!-- 60000 -->
      <defs>
       <path d="M 33.015625 40.375 
Q 26.375 40.375 22.484375 35.828125 
Q 18.609375 31.296875 18.609375 23.390625 
Q 18.609375 15.53125 22.484375 10.953125 
Q 26.375 6.390625 33.015625 6.390625 
Q 39.65625 6.390625 43.53125 10.953125 
Q 47.40625 15.53125 47.40625 23.390625 
Q 47.40625 31.296875 43.53125 35.828125 
Q 39.65625 40.375 33.015625 40.375 
z
M 52.59375 71.296875 
L 52.59375 62.3125 
Q 48.875 64.0625 45.09375 64.984375 
Q 41.3125 65.921875 37.59375 65.921875 
Q 27.828125 65.921875 22.671875 59.328125 
Q 17.53125 52.734375 16.796875 39.40625 
Q 19.671875 43.65625 24.015625 45.921875 
Q 28.375 48.1875 33.59375 48.1875 
Q 44.578125 48.1875 50.953125 41.515625 
Q 57.328125 34.859375 57.328125 23.390625 
Q 57.328125 12.15625 50.6875 5.359375 
Q 44.046875 -1.421875 33.015625 -1.421875 
Q 20.359375 -1.421875 13.671875 8.265625 
Q 6.984375 17.96875 6.984375 36.375 
Q 6.984375 53.65625 15.1875 63.9375 
Q 23.390625 74.21875 37.203125 74.21875 
Q 40.921875 74.21875 44.703125 73.484375 
Q 48.484375 72.75 52.59375 71.296875 
z
" id="DejaVuSans-54"/>
      </defs>
      <g transform="translate(10.8625 86.390533)scale(0.1 -0.1)">
       <use xlink:href="#DejaVuSans-54"/>
       <use x="63.623047" xlink:href="#DejaVuSans-48"/>
       <use x="127.246094" xlink:href="#DejaVuSans-48"/>
       <use x="190.869141" xlink:href="#DejaVuSans-48"/>
       <use x="254.492188" xlink:href="#DejaVuSans-48"/>
      </g>
     </g>
    </g>
    <g id="ytick_8">
     <g id="line2d_14">
      <g>
       <use style="stroke:#000000;stroke-width:0.8;" x="49.675" xlink:href="#m919d1b4d8e" y="31.3232"/>
      </g>
     </g>
     <g id="text_15">
      <!-- 70000 -->
      <g transform="translate(10.8625 35.122419)scale(0.1 -0.1)">
       <use xlink:href="#DejaVuSans-55"/>
       <use x="63.623047" xlink:href="#DejaVuSans-48"/>
       <use x="127.246094" xlink:href="#DejaVuSans-48"/>
       <use x="190.869141" xlink:href="#DejaVuSans-48"/>
       <use x="254.492188" xlink:href="#DejaVuSans-48"/>
      </g>
     </g>
    </g>
    <g id="text_16">
     <!-- Number of Checks -->
     <defs>
      <path d="M 9.8125 72.90625 
L 23.09375 72.90625 
L 55.421875 11.921875 
L 55.421875 72.90625 
L 64.984375 72.90625 
L 64.984375 0 
L 51.703125 0 
L 19.390625 60.984375 
L 19.390625 0 
L 9.8125 0 
z
" id="DejaVuSans-78"/>
      <path d="M 8.5 21.578125 
L 8.5 54.6875 
L 17.484375 54.6875 
L 17.484375 21.921875 
Q 17.484375 14.15625 20.5 10.265625 
Q 23.53125 6.390625 29.59375 6.390625 
Q 36.859375 6.390625 41.078125 11.03125 
Q 45.3125 15.671875 45.3125 23.6875 
L 45.3125 54.6875 
L 54.296875 54.6875 
L 54.296875 0 
L 45.3125 0 
L 45.3125 8.40625 
Q 42.046875 3.421875 37.71875 1 
Q 33.40625 -1.421875 27.6875 -1.421875 
Q 18.265625 -1.421875 13.375 4.4375 
Q 8.5 10.296875 8.5 21.578125 
z
M 31.109375 56 
z
" id="DejaVuSans-117"/>
      <path d="M 52 44.1875 
Q 55.375 50.25 60.0625 53.125 
Q 64.75 56 71.09375 56 
Q 79.640625 56 84.28125 50.015625 
Q 88.921875 44.046875 88.921875 33.015625 
L 88.921875 0 
L 79.890625 0 
L 79.890625 32.71875 
Q 79.890625 40.578125 77.09375 44.375 
Q 74.3125 48.1875 68.609375 48.1875 
Q 61.625 48.1875 57.5625 43.546875 
Q 53.515625 38.921875 53.515625 30.90625 
L 53.515625 0 
L 44.484375 0 
L 44.484375 32.71875 
Q 44.484375 40.625 41.703125 44.40625 
Q 38.921875 48.1875 33.109375 48.1875 
Q 26.21875 48.1875 22.15625 43.53125 
Q 18.109375 38.875 18.109375 30.90625 
L 18.109375 0 
L 9.078125 0 
L 9.078125 54.6875 
L 18.109375 54.6875 
L 18.109375 46.1875 
Q 21.1875 51.21875 25.484375 53.609375 
Q 29.78125 56 35.6875 56 
Q 41.65625 56 45.828125 52.96875 
Q 50 49.953125 52 44.1875 
z
" id="DejaVuSans-109"/>
      <path d="M 48.6875 27.296875 
Q 48.6875 37.203125 44.609375 42.84375 
Q 40.53125 48.484375 33.40625 48.484375 
Q 26.265625 48.484375 22.1875 42.84375 
Q 18.109375 37.203125 18.109375 27.296875 
Q 18.109375 17.390625 22.1875 11.75 
Q 26.265625 6.109375 33.40625 6.109375 
Q 40.53125 6.109375 44.609375 11.75 
Q 48.6875 17.390625 48.6875 27.296875 
z
M 18.109375 46.390625 
Q 20.953125 51.265625 25.265625 53.625 
Q 29.59375 56 35.59375 56 
Q 45.5625 56 51.78125 48.09375 
Q 58.015625 40.1875 58.015625 27.296875 
Q 58.015625 14.40625 51.78125 6.484375 
Q 45.5625 -1.421875 35.59375 -1.421875 
Q 29.59375 -1.421875 25.265625 0.953125 
Q 20.953125 3.328125 18.109375 8.203125 
L 18.109375 0 
L 9.078125 0 
L 9.078125 75.984375 
L 18.109375 75.984375 
z
" id="DejaVuSans-98"/>
      <path d="M 41.109375 46.296875 
Q 39.59375 47.171875 37.8125 47.578125 
Q 36.03125 48 33.890625 48 
Q 26.265625 48 22.1875 43.046875 
Q 18.109375 38.09375 18.109375 28.8125 
L 18.109375 0 
L 9.078125 0 
L 9.078125 54.6875 
L 18.109375 54.6875 
L 18.109375 46.1875 
Q 20.953125 51.171875 25.484375 53.578125 
Q 30.03125 56 36.53125 56 
Q 37.453125 56 38.578125 55.875 
Q 39.703125 55.765625 41.0625 55.515625 
z
" id="DejaVuSans-114"/>
      <path id="DejaVuSans-32"/>
      <path d="M 30.609375 48.390625 
Q 23.390625 48.390625 19.1875 42.75 
Q 14.984375 37.109375 14.984375 27.296875 
Q 14.984375 17.484375 19.15625 11.84375 
Q 23.34375 6.203125 30.609375 6.203125 
Q 37.796875 6.203125 41.984375 11.859375 
Q 46.1875 17.53125 46.1875 27.296875 
Q 46.1875 37.015625 41.984375 42.703125 
Q 37.796875 48.390625 30.609375 48.390625 
z
M 30.609375 56 
Q 42.328125 56 49.015625 48.375 
Q 55.71875 40.765625 55.71875 27.296875 
Q 55.71875 13.875 49.015625 6.21875 
Q 42.328125 -1.421875 30.609375 -1.421875 
Q 18.84375 -1.421875 12.171875 6.21875 
Q 5.515625 13.875 5.515625 27.296875 
Q 5.515625 40.765625 12.171875 48.375 
Q 18.84375 56 30.609375 56 
z
" id="DejaVuSans-111"/>
      <path d="M 37.109375 75.984375 
L 37.109375 68.5 
L 28.515625 68.5 
Q 23.6875 68.5 21.796875 66.546875 
Q 19.921875 64.59375 19.921875 59.515625 
L 19.921875 54.6875 
L 34.71875 54.6875 
L 34.71875 47.703125 
L 19.921875 47.703125 
L 19.921875 0 
L 10.890625 0 
L 10.890625 47.703125 
L 2.296875 47.703125 
L 2.296875 54.6875 
L 10.890625 54.6875 
L 10.890625 58.5 
Q 10.890625 67.625 15.140625 71.796875 
Q 19.390625 75.984375 28.609375 75.984375 
z
" id="DejaVuSans-102"/>
      <path d="M 64.40625 67.28125 
L 64.40625 56.890625 
Q 59.421875 61.53125 53.78125 63.8125 
Q 48.140625 66.109375 41.796875 66.109375 
Q 29.296875 66.109375 22.65625 58.46875 
Q 16.015625 50.828125 16.015625 36.375 
Q 16.015625 21.96875 22.65625 14.328125 
Q 29.296875 6.6875 41.796875 6.6875 
Q 48.140625 6.6875 53.78125 8.984375 
Q 59.421875 11.28125 64.40625 15.921875 
L 64.40625 5.609375 
Q 59.234375 2.09375 53.4375 0.328125 
Q 47.65625 -1.421875 41.21875 -1.421875 
Q 24.65625 -1.421875 15.125 8.703125 
Q 5.609375 18.84375 5.609375 36.375 
Q 5.609375 53.953125 15.125 64.078125 
Q 24.65625 74.21875 41.21875 74.21875 
Q 47.75 74.21875 53.53125 72.484375 
Q 59.328125 70.75 64.40625 67.28125 
z
" id="DejaVuSans-67"/>
      <path d="M 54.890625 33.015625 
L 54.890625 0 
L 45.90625 0 
L 45.90625 32.71875 
Q 45.90625 40.484375 42.875 44.328125 
Q 39.84375 48.1875 33.796875 48.1875 
Q 26.515625 48.1875 22.3125 43.546875 
Q 18.109375 38.921875 18.109375 30.90625 
L 18.109375 0 
L 9.078125 0 
L 9.078125 75.984375 
L 18.109375 75.984375 
L 18.109375 46.1875 
Q 21.34375 51.125 25.703125 53.5625 
Q 30.078125 56 35.796875 56 
Q 45.21875 56 50.046875 50.171875 
Q 54.890625 44.34375 54.890625 33.015625 
z
" id="DejaVuSans-104"/>
      <path d="M 48.78125 52.59375 
L 48.78125 44.1875 
Q 44.96875 46.296875 41.140625 47.34375 
Q 37.3125 48.390625 33.40625 48.390625 
Q 24.65625 48.390625 19.8125 42.84375 
Q 14.984375 37.3125 14.984375 27.296875 
Q 14.984375 17.28125 19.8125 11.734375 
Q 24.65625 6.203125 33.40625 6.203125 
Q 37.3125 6.203125 41.140625 7.25 
Q 44.96875 8.296875 48.78125 10.40625 
L 48.78125 2.09375 
Q 45.015625 0.34375 40.984375 -0.53125 
Q 36.96875 -1.421875 32.421875 -1.421875 
Q 20.0625 -1.421875 12.78125 6.34375 
Q 5.515625 14.109375 5.515625 27.296875 
Q 5.515625 40.671875 12.859375 48.328125 
Q 20.21875 56 33.015625 56 
Q 37.15625 56 41.109375 55.140625 
Q 45.0625 54.296875 48.78125 52.59375 
z
" id="DejaVuSans-99"/>
      <path d="M 9.078125 75.984375 
L 18.109375 75.984375 
L 18.109375 31.109375 
L 44.921875 54.6875 
L 56.390625 54.6875 
L 27.390625 29.109375 
L 57.625 0 
L 45.90625 0 
L 18.109375 26.703125 
L 18.109375 0 
L 9.078125 0 
z
" id="DejaVuSans-107"/>
      <path d="M 44.28125 53.078125 
L 44.28125 44.578125 
Q 40.484375 46.53125 36.375 47.5 
Q 32.28125 48.484375 27.875 48.484375 
Q 21.1875 48.484375 17.84375 46.4375 
Q 14.5 44.390625 14.5 40.28125 
Q 14.5 37.15625 16.890625 35.375 
Q 19.28125 33.59375 26.515625 31.984375 
L 29.59375 31.296875 
Q 39.15625 29.25 43.1875 25.515625 
Q 47.21875 21.78125 47.21875 15.09375 
Q 47.21875 7.46875 41.1875 3.015625 
Q 35.15625 -1.421875 24.609375 -1.421875 
Q 20.21875 -1.421875 15.453125 -0.5625 
Q 10.6875 0.296875 5.421875 2 
L 5.421875 11.28125 
Q 10.40625 8.6875 15.234375 7.390625 
Q 20.0625 6.109375 24.8125 6.109375 
Q 31.15625 6.109375 34.5625 8.28125 
Q 37.984375 10.453125 37.984375 14.40625 
Q 37.984375 18.0625 35.515625 20.015625 
Q 33.0625 21.96875 24.703125 23.78125 
L 21.578125 24.515625 
Q 13.234375 26.265625 9.515625 29.90625 
Q 5.8125 33.546875 5.8125 39.890625 
Q 5.8125 47.609375 11.28125 51.796875 
Q 16.75 56 26.8125 56 
Q 31.78125 56 36.171875 55.265625 
Q 40.578125 54.546875 44.28125 53.078125 
z
" id="DejaVuSans-115"/>
     </defs>
     <g transform="translate(4.782813 256.831131)rotate(-90)scale(0.1 -0.1)">
      <use xlink:href="#DejaVuSans-78"/>
      <use x="74.804688" xlink:href="#DejaVuSans-117"/>
      <use x="138.183594" xlink:href="#DejaVuSans-109"/>
      <use x="235.595703" xlink:href="#DejaVuSans-98"/>
      <use x="299.072266" xlink:href="#DejaVuSans-101"/>
      <use x="360.595703" xlink:href="#DejaVuSans-114"/>
      <use x="401.708984" xlink:href="#DejaVuSans-32"/>
      <use x="433.496094" xlink:href="#DejaVuSans-111"/>
      <use x="494.677734" xlink:href="#DejaVuSans-102"/>
      <use x="529.882812" xlink:href="#DejaVuSans-32"/>
      <use x="561.669922" xlink:href="#DejaVuSans-67"/>
      <use x="631.494141" xlink:href="#DejaVuSans-104"/>
      <use x="694.873047" xlink:href="#DejaVuSans-101"/>
      <use x="756.396484" xlink:href="#DejaVuSans-99"/>
      <use x="811.376953" xlink:href="#DejaVuSans-107"/>
      <use x="869.287109" xlink:href="#DejaVuSans-115"/>
     </g>
    </g>
   </g>
   <g id="line2d_15">
    <path clip-path="url(#p174a5961e9)" d="M 79.653409 388.226084 
L 81.995472 309.035864 
L 84.337536 335.578578 
L 86.679599 325.861779 
L 89.021662 321.063829 
L 91.363725 330.666906 
L 93.705788 337.140298 
L 96.047852 337.541867 
L 98.389915 336.16956 
L 100.731978 325.417611 
L 103.074041 315.692516 
L 105.416104 303.051476 
L 107.758168 297.367987 
L 110.100231 273.836947 
L 112.442294 331.581623 
L 114.784357 325.293356 
L 117.12642 322.550977 
L 119.468484 333.652575 
L 121.810547 341.120475 
L 124.15261 339.860678 
L 126.494673 340.43283 
L 128.836737 327.1501 
L 131.1788 318.038172 
L 133.520863 312.238629 
L 135.862926 307.374311 
L 138.204989 297.576601 
L 140.547053 331.109676 
L 142.889116 328.086163 
L 145.231179 323.040914 
L 147.573242 335.784769 
L 149.915305 340.569016 
L 152.257369 340.388926 
L 154.599432 340.581228 
L 156.941495 324.575882 
L 159.283558 310.237775 
L 161.625621 294.83385 
L 163.967685 299.202826 
L 166.309748 291.830657 
L 168.651811 329.052334 
L 170.993874 326.160439 
L 173.335938 324.213556 
L 175.678001 332.437707 
L 178.020064 338.236597 
L 180.362127 342.919426 
L 182.70419 340.780241 
L 185.046254 325.992746 
L 187.388317 323.246639 
L 189.73038 311.60943 
L 192.072443 308.027373 
L 194.414506 299.78924 
L 196.75657 329.901054 
L 199.098633 324.580915 
L 201.440696 322.135613 
L 203.782759 332.86752 
L 206.124822 337.91715 
L 208.466886 341.375977 
L 210.808949 341.259272 
L 213.151012 327.064249 
L 215.493075 322.031585 
L 217.835138 311.119493 
L 220.177202 312.235926 
L 222.519265 296.698145 
L 224.861328 326.288423 
L 227.203391 323.469516 
L 229.545455 322.194804 
L 234.229581 340.817061 
L 236.571644 340.055869 
L 238.913707 338.65364 
L 241.255771 328.779028 
L 243.597834 321.874704 
L 245.939897 310.239732 
L 248.28196 307.803844 
L 250.624023 290.909043 
L 252.966087 326.932071 
L 255.30815 321.677555 
L 257.650213 319.559623 
L 259.992276 329.850625 
L 262.334339 339.212835 
L 264.676403 339.063878 
L 267.018466 338.402519 
L 269.360529 326.863092 
L 271.702592 316.913536 
L 274.044656 311.166939 
L 276.386719 304.274827 
L 278.728782 281.942157 
L 281.070845 318.617035 
L 283.412908 314.185419 
L 285.754972 312.153151 
L 288.097035 325.58055 
L 290.439098 332.169435 
L 292.781161 333.005012 
L 295.123224 331.487196 
L 297.465288 312.787291 
L 299.807351 304.70492 
L 302.149414 299.866328 
L 304.491477 292.92127 
L 306.83354 273.422049 
L 309.175604 306.905627 
L 311.517667 305.043942 
L 313.85973 299.400161 
L 316.201793 312.026193 
L 318.543857 315.487536 
L 320.88592 316.374661 
L 323.227983 319.675209 
L 325.570046 304.806244 
L 327.912109 302.23678 
L 330.254173 294.757507 
L 332.596236 289.615502 
L 334.938299 275.582207 
L 337.280362 302.480909 
L 339.622425 295.123562 
L 341.964489 293.294222 
L 344.306552 302.695116 
L 346.648615 307.682013 
L 348.990678 313.905123 
L 351.332741 307.272986 
L 353.674805 301.116059 
L 356.016868 299.631334 
L 358.358931 280.00562 
L 360.700994 247.736071 
L 363.043058 248.283521 
L 365.385121 277.143275 
L 367.727184 272.998854 
L 370.069247 265.072337 
L 372.41131 276.289521 
L 374.753374 295.183312 
L 377.095437 300.334453 
L 379.4375 300.385628 
L 381.779563 290.378278 
L 384.121626 288.811618 
L 386.46369 275.866512 
L 388.805753 276.736299 
L 391.147816 259.59597 
L 393.489879 286.516111 
L 395.831942 274.835837 
L 398.174006 269.802147 
L 400.516069 275.847869 
L 402.858132 296.070064 
L 405.200195 297.147254 
L 407.542259 291.123344 
L 409.884322 289.30808 
L 412.226385 283.946367 
L 414.568448 263.437816 
L 416.910511 270.249671 
L 419.252575 249.234591 
L 421.594638 267.851535 
L 423.936701 253.813952 
L 426.278764 256.18431 
L 428.620827 265.322712 
L 430.962891 276.489933 
L 433.304954 282.283975 
L 435.647017 283.249587 
L 437.98908 268.980459 
L 440.331143 274.184545 
L 442.673207 266.053236 
L 445.01527 247.818752 
L 447.357333 217.342562 
L 449.699396 262.606154 
L 452.04146 228.505401 
L 454.383523 230.325046 
L 456.725586 258.201012 
L 459.067649 268.518207 
L 461.409712 269.933393 
L 463.751776 269.991652 
L 466.093839 249.007986 
L 468.435902 254.969909 
L 470.777965 240.614277 
L 473.120028 203.984608 
L 475.462092 131.426057 
L 477.804155 158.726328 
L 480.146218 175.940204 
L 482.488281 185.396374 
L 484.830344 231.506077 
L 487.172408 257.420245 
L 489.514471 271.741107 
L 491.856534 271.670823 
L 494.198597 258.910003 
L 496.540661 260.405634 
L 498.882724 233.683201 
L 501.224787 221.87662 
L 503.56685 200.717244 
L 505.908913 236.342991 
L 508.250977 196.874652 
L 510.59304 159.34341 
L 512.935103 228.59815 
L 515.277166 252.585382 
L 517.619229 262.01713 
L 519.961293 260.286132 
L 522.303356 246.803364 
L 524.645419 255.273043 
L 526.987482 241.438762 
L 529.329545 222.677894 
L 531.671609 175.676872 
L 534.013672 225.840671 
L 536.355735 217.910426 
L 538.697798 203.654441 
L 541.039862 231.945864 
L 543.381925 243.769597 
L 545.723988 248.620586 
L 548.066051 242.038692 
L 550.408114 228.387484 
L 552.750178 223.649192 
L 555.092241 206.637034 
L 557.434304 181.729213 
L 559.776367 81.827047 
L 562.11843 153.420917 
L 564.460494 147.406608 
L 566.802557 156.318125 
L 569.14462 191.10177 
L 571.486683 216.755402 
L 573.828746 192.273945 
L 576.17081 186.321624 
L 578.512873 218.98426 
L 580.854936 205.299588 
L 583.196999 173.334292 
L 585.539062 152.084218 
L 587.881126 132.636917 
L 590.223189 200.777554 
L 594.907315 164.36405 
L 597.249379 200.304769 
L 599.591442 213.200098 
L 601.933505 214.185751 
L 604.275568 228.630122 
L 606.617631 213.422229 
L 608.959695 217.079137 
L 611.301758 202.184258 
L 613.643821 169.011831 
L 615.985884 150.126708 
L 618.327947 204.076145 
L 620.670011 176.423802 
L 623.012074 133.497662 
L 625.354137 186.421457 
L 627.6962 205.322892 
L 630.038263 211.895278 
L 632.380327 221.784617 
L 634.72239 201.318107 
L 637.064453 213.479649 
L 639.406516 200.668679 
L 641.74858 169.867822 
L 644.090643 155.551807 
L 646.432706 189.758265 
L 648.774769 201.098306 
L 651.116832 147.382372 
L 653.458896 175.327317 
L 655.800959 173.856201 
L 658.143022 176.638848 
L 660.485085 203.371814 
L 662.827148 171.950426 
L 665.169212 186.150295 
L 667.511275 173.265779 
L 669.853338 152.888009 
L 672.195401 120.016944 
L 674.537464 142.969959 
L 676.879528 131.400423 
L 679.221591 44.414094 
L 679.221591 44.414094 
" style="fill:none;stroke:#1f77b4;stroke-linecap:square;stroke-width:1.5;"/>
   </g>
   <g id="line2d_16">
    <path clip-path="url(#p174a5961e9)" d="M 79.653409 389.56064 
L 81.995472 369.964285 
L 84.337536 372.683774 
L 86.679599 368.131166 
L 89.021662 367.315813 
L 91.363725 370.538393 
L 93.705788 371.969343 
L 96.047852 372.781089 
L 98.389915 372.476898 
L 100.731978 372.496654 
L 103.074041 372.95294 
L 105.416104 370.177657 
L 107.758168 370.312912 
L 110.100231 361.638254 
L 112.442294 372.892164 
L 114.784357 370.160692 
L 117.12642 369.771987 
L 119.468484 373.371195 
L 121.810547 375.181705 
L 124.15261 374.950719 
L 126.494673 375.829175 
L 128.836737 374.651872 
L 131.1788 374.840073 
L 133.520863 374.477561 
L 135.862926 373.289912 
L 138.204989 368.667485 
L 140.547053 373.503933 
L 142.889116 372.215984 
L 145.231179 371.601886 
L 147.573242 375.021003 
L 152.257369 375.977945 
L 154.599432 376.8001 
L 156.941495 375.070873 
L 159.283558 371.473156 
L 161.625621 368.352513 
L 163.967685 373.764281 
L 166.309748 371.157065 
L 168.651811 375.417911 
L 170.993874 373.952855 
L 173.335938 373.73147 
L 175.678001 376.062305 
L 178.020064 376.879705 
L 180.362127 378.021959 
L 182.70419 378.109114 
L 185.046254 376.287512 
L 187.388317 377.351092 
L 189.73038 375.9401 
L 192.072443 376.120191 
L 194.414506 372.534126 
L 196.75657 375.888366 
L 199.098633 373.106546 
L 201.440696 373.050443 
L 203.782759 376.456696 
L 206.124822 376.962666 
L 208.466886 377.97358 
L 210.808949 378.081896 
L 213.151012 376.749111 
L 215.493075 376.983546 
L 217.835138 375.642652 
L 220.177202 376.54525 
L 222.519265 372.100678 
L 224.861328 373.910535 
L 227.203391 371.846388 
L 229.545455 372.043724 
L 231.887518 374.710691 
L 234.229581 376.579833 
L 236.571644 376.948591 
L 241.255771 376.556996 
L 243.597834 376.491559 
L 245.939897 374.919772 
L 248.28196 375.117111 
L 250.624023 370.744776 
L 252.966087 373.366115 
L 255.30815 370.361234 
L 257.650213 370.153123 
L 259.992276 372.776341 
L 262.334339 375.058152 
L 264.676403 375.307182 
L 267.018466 375.289049 
L 269.360529 374.297675 
L 271.702592 372.030295 
L 274.044656 372.205841 
L 276.386719 372.79084 
L 278.728782 366.689002 
L 281.070845 370.155006 
L 283.412908 368.189294 
L 285.754972 367.732728 
L 288.097035 371.640383 
L 290.439098 373.343976 
L 292.781161 373.29886 
L 295.123224 374.292996 
L 297.465288 372.710302 
L 299.807351 372.970558 
L 302.149414 372.224653 
L 304.491477 372.163784 
L 306.83354 366.109952 
L 309.175604 369.660036 
L 311.517667 367.503233 
L 313.85973 366.676791 
L 316.201793 369.884683 
L 318.543857 371.244593 
L 320.88592 371.484715 
L 323.227983 372.898689 
L 325.570046 370.628444 
L 327.912109 371.710947 
L 330.254173 370.838084 
L 332.596236 370.714947 
L 334.938299 363.47533 
L 337.280362 366.745956 
L 339.622425 362.840631 
L 341.964489 362.957149 
L 344.306552 366.451304 
L 346.648615 367.348124 
L 348.990678 369.312065 
L 353.674805 368.343471 
L 356.016868 370.015184 
L 358.358931 365.32266 
L 360.700994 352.132959 
L 363.043058 351.541139 
L 365.385121 357.092636 
L 367.727184 353.418391 
L 370.069247 352.374945 
L 372.41131 357.355595 
L 374.753374 363.836444 
L 377.095437 366.625057 
L 379.4375 366.755278 
L 381.779563 366.007695 
L 384.121626 367.119188 
L 386.46369 364.545249 
L 388.805753 365.127841 
L 391.147816 358.216154 
L 393.489879 363.219549 
L 395.831942 356.617241 
L 398.174006 355.904335 
L 400.516069 360.900179 
L 402.858132 364.527911 
L 405.200195 366.025779 
L 407.542259 365.126443 
L 409.884322 364.018399 
L 412.226385 364.553545 
L 414.568448 363.055584 
L 416.910511 362.253378 
L 419.252575 353.353699 
L 421.594638 358.288768 
L 423.936701 350.663988 
L 426.278764 349.314704 
L 428.620827 356.445167 
L 430.962891 361.497406 
L 433.304954 362.386582 
L 435.647017 363.04561 
L 437.98908 360.416115 
L 440.331143 360.67665 
L 442.673207 359.554531 
L 445.01527 356.674382 
L 447.357333 342.483181 
L 449.699396 352.710611 
L 452.04146 337.241623 
L 454.383523 340.268492 
L 456.725586 351.398427 
L 459.067649 355.128322 
L 461.409712 355.6699 
L 463.751776 355.026065 
L 466.093839 350.437103 
L 468.435902 353.846806 
L 470.777965 351.957715 
L 473.120028 340.4978 
L 475.462092 308.481143 
L 477.804155 308.07426 
L 480.146218 318.343357 
L 482.488281 326.509528 
L 484.830344 340.45371 
L 487.172408 348.670777 
L 489.514471 353.43955 
L 491.856534 353.75154 
L 494.198597 350.298679 
L 496.540661 351.666885 
L 498.882724 350.862908 
L 501.224787 347.424775 
L 503.56685 337.494607 
L 505.908913 349.243022 
L 508.250977 331.130929 
L 510.59304 331.493162 
L 512.935103 342.803281 
L 515.277166 347.821777 
L 517.619229 351.900761 
L 519.961293 352.096885 
L 522.303356 347.310121 
L 524.645419 348.001495 
L 526.987482 342.448039 
L 529.329545 339.090071 
L 531.671609 321.19955 
L 534.013672 339.525943 
L 536.355735 327.075249 
L 538.697798 331.367136 
L 541.039862 341.18731 
L 543.381925 343.54061 
L 545.723988 345.175317 
L 548.066051 342.361629 
L 550.408114 342.249026 
L 552.750178 342.951586 
L 555.092241 337.545503 
L 557.434304 327.62214 
L 559.776367 278.17945 
L 562.11843 316.602105 
L 564.460494 311.133848 
L 566.802557 321.535216 
L 569.14462 332.969404 
L 571.486683 342.436201 
L 573.828746 335.872484 
L 576.17081 331.593554 
L 578.512873 333.192187 
L 580.854936 340.450447 
L 583.196999 331.054866 
L 585.539062 320.435282 
L 587.881126 311.436703 
L 590.223189 337.757659 
L 592.565252 323.278332 
L 594.907315 320.114996 
L 597.249379 332.085449 
L 599.591442 338.743778 
L 601.933505 337.146916 
L 604.275568 345.44536 
L 606.617631 342.894538 
L 608.959695 345.635704 
L 611.301758 341.730193 
L 613.643821 326.811265 
L 615.985884 317.094745 
L 618.327947 343.439938 
L 620.670011 328.519891 
L 623.012074 317.357145 
L 625.354137 337.664072 
L 627.6962 344.700015 
L 630.038263 346.001386 
L 632.380327 349.468042 
L 634.72239 345.575954 
L 637.064453 349.683275 
L 639.406516 347.319629 
L 641.74858 335.883018 
L 644.090643 323.797072 
L 646.432706 342.257881 
L 648.774769 334.142512 
L 651.116832 322.411808 
L 653.458896 340.166608 
L 655.800959 344.401821 
L 658.143022 344.25305 
L 660.485085 348.759704 
L 662.827148 336.757838 
L 665.169212 344.881877 
L 667.511275 342.010023 
L 669.853338 330.810737 
L 672.195401 317.483823 
L 674.537464 330.232805 
L 676.879528 323.148111 
L 679.221591 260.381957 
L 679.221591 260.381957 
" style="fill:none;stroke:#ff7f0e;stroke-linecap:square;stroke-width:1.5;"/>
   </g>
   <g id="line2d_17">
    <path clip-path="url(#p174a5961e9)" d="M 79.653409 389.089906 
L 81.995472 335.999919 
L 84.337536 360.776375 
L 86.679599 356.741764 
L 89.021662 354.428623 
L 91.363725 359.512995 
L 93.705788 363.480388 
L 96.047852 363.015462 
L 98.389915 361.365388 
L 100.731978 352.642937 
L 103.074041 342.805984 
L 105.416104 334.133004 
L 107.758168 328.303912 
L 110.100231 314.993778 
L 112.442294 360.112422 
L 114.784357 356.833779 
L 117.12642 355.831814 
L 121.810547 366.949724 
L 126.494673 365.015331 
L 131.1788 344.625816 
L 133.520863 340.196996 
L 135.862926 335.410139 
L 138.204989 329.72059 
L 140.547053 360.079237 
L 142.889116 358.100101 
L 145.231179 355.385222 
L 147.573242 362.151028 
L 149.915305 366.074158 
L 152.257369 365.40935 
L 154.599432 365.330583 
L 156.941495 352.078801 
L 159.283558 340.732049 
L 161.625621 332.413751 
L 163.967685 335.562918 
L 166.309748 328.28732 
L 168.651811 361.730723 
L 170.993874 360.558454 
L 173.335938 357.6509 
L 175.678001 362.952862 
L 178.020064 367.308414 
L 180.362127 368.740938 
L 182.70419 367.413094 
L 185.046254 356.264144 
L 187.388317 351.925556 
L 189.73038 344.206349 
L 192.072443 339.746956 
L 194.414506 332.888773 
L 196.75657 361.943439 
L 199.098633 359.349507 
L 201.440696 357.3047 
L 203.782759 363.458458 
L 206.124822 367.100079 
L 208.466886 368.690136 
L 210.808949 368.276356 
L 213.151012 357.536339 
L 215.493075 352.478972 
L 217.835138 344.560659 
L 220.177202 341.735599 
L 222.519265 330.83926 
L 224.861328 360.245066 
L 227.203391 359.252609 
L 229.545455 357.898385 
L 231.887518 362.794024 
L 234.229581 368.019083 
L 236.571644 368.154804 
L 238.913707 366.343548 
L 241.255771 358.177656 
L 243.597834 351.428162 
L 245.939897 342.714168 
L 248.28196 338.808368 
L 250.624023 327.525103 
L 252.966087 360.3893 
L 255.30815 357.795324 
L 257.650213 356.083064 
L 259.992276 361.247032 
L 262.334339 366.897693 
L 264.676403 367.402494 
L 267.018466 366.617902 
L 269.360529 357.967926 
L 274.044656 344.185158 
L 276.386719 338.088292 
L 278.728782 322.131418 
L 281.070845 356.194326 
L 283.412908 354.793028 
L 285.754972 352.53835 
L 288.097035 360.366339 
L 290.439098 365.558121 
L 292.781161 366.14267 
L 295.123224 366.317262 
L 297.465288 356.952069 
L 299.807351 349.033289 
L 302.149414 345.366687 
L 304.491477 337.836985 
L 306.83354 324.840332 
L 309.175604 358.122659 
L 311.517667 357.87592 
L 313.85973 354.947579 
L 316.201793 362.037772 
L 318.543857 366.406841 
L 320.88592 365.796657 
L 323.227983 365.745109 
L 325.570046 355.437888 
L 327.912109 352.020169 
L 330.254173 346.759501 
L 332.596236 340.451659 
L 334.938299 330.741851 
L 337.280362 358.490951 
L 339.622425 356.000719 
L 341.964489 354.421754 
L 344.306552 360.301648 
L 346.648615 363.392462 
L 348.990678 365.788454 
L 351.332741 365.179576 
L 353.674805 356.67839 
L 356.016868 353.271577 
L 358.358931 343.410016 
L 360.700994 323.18605 
L 363.043058 324.783471 
L 365.385121 351.471694 
L 367.727184 350.338016 
L 370.069247 346.471375 
L 372.41131 352.892473 
L 374.753374 360.915001 
L 377.095437 363.309594 
L 379.4375 363.489779 
L 381.779563 356.427363 
L 384.121626 352.365716 
L 386.46369 345.509492 
L 388.805753 342.181818 
L 391.147816 332.944889 
L 393.489879 357.612402 
L 395.831942 354.103146 
L 398.174006 350.930116 
L 400.516069 357.633562 
L 402.858132 363.125588 
L 405.200195 364.169873 
L 407.542259 363.327958 
L 409.884322 355.983288 
L 412.226385 351.485769 
L 414.568448 345.854386 
L 416.910511 338.143475 
L 419.252575 328.66745 
L 421.594638 356.251 
L 423.936701 350.718332 
L 426.278764 346.723987 
L 428.620827 352.538164 
L 430.962891 360.27853 
L 433.304954 361.521642 
L 435.647017 361.097049 
L 437.98908 351.673224 
L 440.331143 346.892985 
L 442.673207 341.497995 
L 445.01527 330.282489 
L 447.357333 315.280227 
L 449.699396 349.963945 
L 452.04146 338.427221 
L 454.383523 338.369987 
L 456.725586 349.35199 
L 459.067649 354.334039 
L 463.751776 353.47404 
L 466.093839 342.622631 
L 468.435902 341.630453 
L 470.777965 334.498499 
L 473.120028 309.730966 
L 475.462092 276.061797 
L 477.804155 316.7162 
L 480.146218 324.649242 
L 482.488281 324.868296 
L 484.830344 338.558747 
L 487.172408 349.495541 
L 489.514471 353.579093 
L 491.856534 355.072393 
L 494.198597 343.863692 
L 496.540661 341.421465 
L 498.882724 336.231175 
L 501.224787 321.941633 
L 503.56685 311.493377 
L 505.908913 350.030966 
L 508.250977 346.368093 
L 510.59304 345.184359 
L 512.935103 354.500987 
L 515.277166 360.022842 
L 517.619229 361.860571 
L 519.961293 361.231931 
L 522.303356 351.386775 
L 524.645419 347.15091 
L 526.987482 340.274085 
L 529.329545 328.458649 
L 531.671609 319.205873 
L 534.013672 353.423144 
L 536.355735 348.385819 
L 538.697798 348.616246 
L 541.039862 356.470987 
L 543.381925 360.369135 
L 545.723988 361.732121 
L 548.066051 359.886003 
L 550.408114 352.036295 
L 552.750178 348.573647 
L 555.092241 342.518323 
L 557.434304 330.831244 
L 559.776367 308.792293 
L 562.11843 348.316374 
L 564.460494 346.554149 
L 566.802557 350.039635 
L 569.14462 354.289855 
L 571.486683 360.770611 
L 573.828746 350.705189 
L 576.17081 349.153349 
L 578.512873 346.286996 
L 580.854936 344.848785 
L 583.196999 336.473719 
L 585.539062 320.69358 
L 587.881126 316.050181 
L 590.223189 356.074172 
L 592.565252 350.893389 
L 594.907315 347.202551 
L 597.249379 355.106137 
L 599.591442 359.610926 
L 601.933505 359.331748 
L 604.275568 360.160241 
L 606.617631 353.198404 
L 608.959695 351.301017 
L 611.301758 345.437996 
L 613.643821 330.970693 
L 615.985884 325.156143 
L 618.327947 358.730979 
L 620.670011 349.710028 
L 623.012074 339.772776 
L 625.354137 355.156286 
L 627.6962 362.192136 
L 630.038263 363.025849 
L 632.380327 364.398809 
L 634.72239 356.483758 
L 637.064453 355.660951 
L 639.406516 351.255995 
L 641.74858 337.2227 
L 644.090643 330.496323 
L 646.432706 357.969321 
L 648.774769 357.039411 
L 651.116832 349.586518 
L 653.458896 359.057231 
L 655.800959 363.063228 
L 658.143022 363.069939 
L 660.485085 365.227208 
L 662.827148 353.805977 
L 665.169212 353.07825 
L 667.511275 348.128733 
L 669.853338 338.237902 
L 672.195401 331.897714 
L 674.537464 354.750429 
L 676.879528 352.91037 
L 679.221591 319.536412 
L 679.221591 319.536412 
" style="fill:none;stroke:#2ca02c;stroke-linecap:square;stroke-width:1.5;"/>
   </g>
   <g id="patch_3">
    <path d="M 49.675 390.2 
L 49.675 31.3232 
" style="fill:none;stroke:#000000;stroke-linecap:square;stroke-linejoin:miter;stroke-width:0.8;"/>
   </g>
   <g id="patch_4">
    <path d="M 709.2 390.2 
L 709.2 31.3232 
" style="fill:none;stroke:#000000;stroke-linecap:square;stroke-linejoin:miter;stroke-width:0.8;"/>
   </g>
   <g id="patch_5">
    <path d="M 49.675 390.2 
L 709.2 390.2 
" style="fill:none;stroke:#000000;stroke-linecap:square;stroke-linejoin:miter;stroke-width:0.8;"/>
   </g>
   <g id="patch_6">
    <path d="M 49.675 31.3232 
L 709.2 31.3232 
" style="fill:none;stroke:#000000;stroke-linecap:square;stroke-linejoin:miter;stroke-width:0.8;"/>
   </g>
   <g id="text_17">
    <!-- Average of Nics Firearm Background Checks 1998 - 2020 -->
    <defs>
     <path d="M 34.1875 63.1875 
L 20.796875 26.90625 
L 47.609375 26.90625 
z
M 28.609375 72.90625 
L 39.796875 72.90625 
L 67.578125 0 
L 57.328125 0 
L 50.6875 18.703125 
L 17.828125 18.703125 
L 11.1875 0 
L 0.78125 0 
z
" id="DejaVuSans-65"/>
     <path d="M 2.984375 54.6875 
L 12.5 54.6875 
L 29.59375 8.796875 
L 46.6875 54.6875 
L 56.203125 54.6875 
L 35.6875 0 
L 23.484375 0 
z
" id="DejaVuSans-118"/>
     <path d="M 45.40625 27.984375 
Q 45.40625 37.75 41.375 43.109375 
Q 37.359375 48.484375 30.078125 48.484375 
Q 22.859375 48.484375 18.828125 43.109375 
Q 14.796875 37.75 14.796875 27.984375 
Q 14.796875 18.265625 18.828125 12.890625 
Q 22.859375 7.515625 30.078125 7.515625 
Q 37.359375 7.515625 41.375 12.890625 
Q 45.40625 18.265625 45.40625 27.984375 
z
M 54.390625 6.78125 
Q 54.390625 -7.171875 48.1875 -13.984375 
Q 42 -20.796875 29.203125 -20.796875 
Q 24.46875 -20.796875 20.265625 -20.09375 
Q 16.0625 -19.390625 12.109375 -17.921875 
L 12.109375 -9.1875 
Q 16.0625 -11.328125 19.921875 -12.34375 
Q 23.78125 -13.375 27.78125 -13.375 
Q 36.625 -13.375 41.015625 -8.765625 
Q 45.40625 -4.15625 45.40625 5.171875 
L 45.40625 9.625 
Q 42.625 4.78125 38.28125 2.390625 
Q 33.9375 0 27.875 0 
Q 17.828125 0 11.671875 7.65625 
Q 5.515625 15.328125 5.515625 27.984375 
Q 5.515625 40.671875 11.671875 48.328125 
Q 17.828125 56 27.875 56 
Q 33.9375 56 38.28125 53.609375 
Q 42.625 51.21875 45.40625 46.390625 
L 45.40625 54.6875 
L 54.390625 54.6875 
z
" id="DejaVuSans-103"/>
     <path d="M 9.421875 54.6875 
L 18.40625 54.6875 
L 18.40625 0 
L 9.421875 0 
z
M 9.421875 75.984375 
L 18.40625 75.984375 
L 18.40625 64.59375 
L 9.421875 64.59375 
z
" id="DejaVuSans-105"/>
     <path d="M 9.8125 72.90625 
L 51.703125 72.90625 
L 51.703125 64.59375 
L 19.671875 64.59375 
L 19.671875 43.109375 
L 48.578125 43.109375 
L 48.578125 34.8125 
L 19.671875 34.8125 
L 19.671875 0 
L 9.8125 0 
z
" id="DejaVuSans-70"/>
     <path d="M 19.671875 34.8125 
L 19.671875 8.109375 
L 35.5 8.109375 
Q 43.453125 8.109375 47.28125 11.40625 
Q 51.125 14.703125 51.125 21.484375 
Q 51.125 28.328125 47.28125 31.5625 
Q 43.453125 34.8125 35.5 34.8125 
z
M 19.671875 64.796875 
L 19.671875 42.828125 
L 34.28125 42.828125 
Q 41.5 42.828125 45.03125 45.53125 
Q 48.578125 48.25 48.578125 53.8125 
Q 48.578125 59.328125 45.03125 62.0625 
Q 41.5 64.796875 34.28125 64.796875 
z
M 9.8125 72.90625 
L 35.015625 72.90625 
Q 46.296875 72.90625 52.390625 68.21875 
Q 58.5 63.53125 58.5 54.890625 
Q 58.5 48.1875 55.375 44.234375 
Q 52.25 40.28125 46.1875 39.3125 
Q 53.46875 37.75 57.5 32.78125 
Q 61.53125 27.828125 61.53125 20.40625 
Q 61.53125 10.640625 54.890625 5.3125 
Q 48.25 0 35.984375 0 
L 9.8125 0 
z
" id="DejaVuSans-66"/>
     <path d="M 54.890625 33.015625 
L 54.890625 0 
L 45.90625 0 
L 45.90625 32.71875 
Q 45.90625 40.484375 42.875 44.328125 
Q 39.84375 48.1875 33.796875 48.1875 
Q 26.515625 48.1875 22.3125 43.546875 
Q 18.109375 38.921875 18.109375 30.90625 
L 18.109375 0 
L 9.078125 0 
L 9.078125 54.6875 
L 18.109375 54.6875 
L 18.109375 46.1875 
Q 21.34375 51.125 25.703125 53.5625 
Q 30.078125 56 35.796875 56 
Q 45.21875 56 50.046875 50.171875 
Q 54.890625 44.34375 54.890625 33.015625 
z
" id="DejaVuSans-110"/>
     <path d="M 45.40625 46.390625 
L 45.40625 75.984375 
L 54.390625 75.984375 
L 54.390625 0 
L 45.40625 0 
L 45.40625 8.203125 
Q 42.578125 3.328125 38.25 0.953125 
Q 33.9375 -1.421875 27.875 -1.421875 
Q 17.96875 -1.421875 11.734375 6.484375 
Q 5.515625 14.40625 5.515625 27.296875 
Q 5.515625 40.1875 11.734375 48.09375 
Q 17.96875 56 27.875 56 
Q 33.9375 56 38.25 53.625 
Q 42.578125 51.265625 45.40625 46.390625 
z
M 14.796875 27.296875 
Q 14.796875 17.390625 18.875 11.75 
Q 22.953125 6.109375 30.078125 6.109375 
Q 37.203125 6.109375 41.296875 11.75 
Q 45.40625 17.390625 45.40625 27.296875 
Q 45.40625 37.203125 41.296875 42.84375 
Q 37.203125 48.484375 30.078125 48.484375 
Q 22.953125 48.484375 18.875 42.84375 
Q 14.796875 37.203125 14.796875 27.296875 
z
" id="DejaVuSans-100"/>
    </defs>
    <g transform="translate(236.997656 18.145664)scale(0.1 -0.1)">
     <use xlink:href="#DejaVuSans-65"/>
     <use x="62.533203" xlink:href="#DejaVuSans-118"/>
     <use x="121.712891" xlink:href="#DejaVuSans-101"/>
     <use x="183.236328" xlink:href="#DejaVuSans-114"/>
     <use x="224.349609" xlink:href="#DejaVuSans-97"/>
     <use x="285.628906" xlink:href="#DejaVuSans-103"/>
     <use x="349.105469" xlink:href="#DejaVuSans-101"/>
     <use x="410.628906" xlink:href="#DejaVuSans-32"/>
     <use x="442.416016" xlink:href="#DejaVuSans-111"/>
     <use x="503.597656" xlink:href="#DejaVuSans-102"/>
     <use x="538.802734" xlink:href="#DejaVuSans-32"/>
     <use x="570.589844" xlink:href="#DejaVuSans-78"/>
     <use x="645.394531" xlink:href="#DejaVuSans-105"/>
     <use x="673.177734" xlink:href="#DejaVuSans-99"/>
     <use x="728.158203" xlink:href="#DejaVuSans-115"/>
     <use x="780.257812" xlink:href="#DejaVuSans-32"/>
     <use x="812.044922" xlink:href="#DejaVuSans-70"/>
     <use x="862.314453" xlink:href="#DejaVuSans-105"/>
     <use x="890.097656" xlink:href="#DejaVuSans-114"/>
     <use x="928.960938" xlink:href="#DejaVuSans-101"/>
     <use x="990.484375" xlink:href="#DejaVuSans-97"/>
     <use x="1051.763672" xlink:href="#DejaVuSans-114"/>
     <use x="1091.126953" xlink:href="#DejaVuSans-109"/>
     <use x="1188.539062" xlink:href="#DejaVuSans-32"/>
     <use x="1220.326172" xlink:href="#DejaVuSans-66"/>
     <use x="1288.929688" xlink:href="#DejaVuSans-97"/>
     <use x="1350.208984" xlink:href="#DejaVuSans-99"/>
     <use x="1405.189453" xlink:href="#DejaVuSans-107"/>
     <use x="1463.099609" xlink:href="#DejaVuSans-103"/>
     <use x="1526.576172" xlink:href="#DejaVuSans-114"/>
     <use x="1565.439453" xlink:href="#DejaVuSans-111"/>
     <use x="1626.621094" xlink:href="#DejaVuSans-117"/>
     <use x="1690" xlink:href="#DejaVuSans-110"/>
     <use x="1753.378906" xlink:href="#DejaVuSans-100"/>
     <use x="1816.855469" xlink:href="#DejaVuSans-32"/>
     <use x="1848.642578" xlink:href="#DejaVuSans-67"/>
     <use x="1918.466797" xlink:href="#DejaVuSans-104"/>
     <use x="1981.845703" xlink:href="#DejaVuSans-101"/>
     <use x="2043.369141" xlink:href="#DejaVuSans-99"/>
     <use x="2098.349609" xlink:href="#DejaVuSans-107"/>
     <use x="2156.259766" xlink:href="#DejaVuSans-115"/>
     <use x="2208.359375" xlink:href="#DejaVuSans-32"/>
     <use x="2240.146484" xlink:href="#DejaVuSans-49"/>
     <use x="2303.769531" xlink:href="#DejaVuSans-57"/>
     <use x="2367.392578" xlink:href="#DejaVuSans-57"/>
     <use x="2431.015625" xlink:href="#DejaVuSans-56"/>
     <use x="2494.638672" xlink:href="#DejaVuSans-32"/>
     <use x="2526.425781" xlink:href="#DejaVuSans-45"/>
     <use x="2562.509766" xlink:href="#DejaVuSans-32"/>
     <use x="2594.296875" xlink:href="#DejaVuSans-50"/>
     <use x="2657.919922" xlink:href="#DejaVuSans-48"/>
     <use x="2721.542969" xlink:href="#DejaVuSans-50"/>
     <use x="2785.166016" xlink:href="#DejaVuSans-48"/>
    </g>
   </g>
   <g id="legend_1">
    <g id="patch_7">
     <path d="M 56.675 84.19195 
L 168.559375 84.19195 
Q 170.559375 84.19195 170.559375 82.19195 
L 170.559375 38.3232 
Q 170.559375 36.3232 168.559375 36.3232 
L 56.675 36.3232 
Q 54.675 36.3232 54.675 38.3232 
L 54.675 82.19195 
Q 54.675 84.19195 56.675 84.19195 
z
" style="fill:#ffffff;opacity:0.8;stroke:#cccccc;stroke-linejoin:miter;"/>
    </g>
    <g id="line2d_18">
     <path d="M 58.675 44.421638 
L 78.675 44.421638 
" style="fill:none;stroke:#1f77b4;stroke-linecap:square;stroke-width:1.5;"/>
    </g>
    <g id="line2d_19"/>
    <g id="text_18">
     <!-- Total_check -->
     <defs>
      <path d="M -0.296875 72.90625 
L 61.375 72.90625 
L 61.375 64.59375 
L 35.5 64.59375 
L 35.5 0 
L 25.59375 0 
L 25.59375 64.59375 
L -0.296875 64.59375 
z
" id="DejaVuSans-84"/>
      <path d="M 9.421875 75.984375 
L 18.40625 75.984375 
L 18.40625 0 
L 9.421875 0 
z
" id="DejaVuSans-108"/>
      <path d="M 50.984375 -16.609375 
L 50.984375 -23.578125 
L -0.984375 -23.578125 
L -0.984375 -16.609375 
z
" id="DejaVuSans-95"/>
     </defs>
     <g transform="translate(86.675 47.921638)scale(0.1 -0.1)">
      <use xlink:href="#DejaVuSans-84"/>
      <use x="44.083984" xlink:href="#DejaVuSans-111"/>
      <use x="105.265625" xlink:href="#DejaVuSans-116"/>
      <use x="144.474609" xlink:href="#DejaVuSans-97"/>
      <use x="205.753906" xlink:href="#DejaVuSans-108"/>
      <use x="233.537109" xlink:href="#DejaVuSans-95"/>
      <use x="283.537109" xlink:href="#DejaVuSans-99"/>
      <use x="338.517578" xlink:href="#DejaVuSans-104"/>
      <use x="401.896484" xlink:href="#DejaVuSans-101"/>
      <use x="463.419922" xlink:href="#DejaVuSans-99"/>
      <use x="518.400391" xlink:href="#DejaVuSans-107"/>
     </g>
    </g>
    <g id="line2d_20">
     <path d="M 58.675 59.377888 
L 78.675 59.377888 
" style="fill:none;stroke:#ff7f0e;stroke-linecap:square;stroke-width:1.5;"/>
    </g>
    <g id="line2d_21"/>
    <g id="text_19">
     <!-- handgun_check -->
     <g transform="translate(86.675 62.877888)scale(0.1 -0.1)">
      <use xlink:href="#DejaVuSans-104"/>
      <use x="63.378906" xlink:href="#DejaVuSans-97"/>
      <use x="124.658203" xlink:href="#DejaVuSans-110"/>
      <use x="188.037109" xlink:href="#DejaVuSans-100"/>
      <use x="251.513672" xlink:href="#DejaVuSans-103"/>
      <use x="314.990234" xlink:href="#DejaVuSans-117"/>
      <use x="378.369141" xlink:href="#DejaVuSans-110"/>
      <use x="441.748047" xlink:href="#DejaVuSans-95"/>
      <use x="491.748047" xlink:href="#DejaVuSans-99"/>
      <use x="546.728516" xlink:href="#DejaVuSans-104"/>
      <use x="610.107422" xlink:href="#DejaVuSans-101"/>
      <use x="671.630859" xlink:href="#DejaVuSans-99"/>
      <use x="726.611328" xlink:href="#DejaVuSans-107"/>
     </g>
    </g>
    <g id="line2d_22">
     <path d="M 58.675 74.334138 
L 78.675 74.334138 
" style="fill:none;stroke:#2ca02c;stroke-linecap:square;stroke-width:1.5;"/>
    </g>
    <g id="line2d_23"/>
    <g id="text_20">
     <!-- long_gun_check -->
     <g transform="translate(86.675 77.834138)scale(0.1 -0.1)">
      <use xlink:href="#DejaVuSans-108"/>
      <use x="27.783203" xlink:href="#DejaVuSans-111"/>
      <use x="88.964844" xlink:href="#DejaVuSans-110"/>
      <use x="152.34375" xlink:href="#DejaVuSans-103"/>
      <use x="215.820312" xlink:href="#DejaVuSans-95"/>
      <use x="265.820312" xlink:href="#DejaVuSans-103"/>
      <use x="329.296875" xlink:href="#DejaVuSans-117"/>
      <use x="392.675781" xlink:href="#DejaVuSans-110"/>
      <use x="456.054688" xlink:href="#DejaVuSans-95"/>
      <use x="506.054688" xlink:href="#DejaVuSans-99"/>
      <use x="561.035156" xlink:href="#DejaVuSans-104"/>
      <use x="624.414062" xlink:href="#DejaVuSans-101"/>
      <use x="685.9375" xlink:href="#DejaVuSans-99"/>
      <use x="740.917969" xlink:href="#DejaVuSans-107"/>
     </g>
    </g>
   </g>
  </g>
 </g>
 <defs>
  <clipPath id="p174a5961e9">
   <rect height="358.8768" width="659.525" x="49.675" y="31.3232"/>
  </clipPath>
 </defs>
</svg>
